<?xml version="1.0" encoding="UTF-8"?>
<!-- Generator: CustomSymbols v2.6.4.43 by @serious_bret https://bretlester.com/app_content/CustomSymbols/ -->
<!-- Guides: Left/Right 0.0/0.0 Cap/Base 0.0/0.0 -->
<!-- Settings: RefScale 1.0 Min/Max Stroke Scales 0.5/2.21 -->
<!DOCTYPE svg
PUBLIC "-//W3C//DTD SVG 1.1//EN"
       "http://www.w3.org/Graphics/SVG/1.1/DTD/svg11.dtd">
<svg version="1.1" xmlns="http://www.w3.org/2000/svg" xmlns:xlink="http://www.w3.org/1999/xlink" width="3300" height="2200">
<![CDATA[<?xml version="1.0" standalone="no"?>
<!DOCTYPE svg PUBLIC "-//W3C//DTD SVG 20010904//EN"
 "http://www.w3.org/TR/2001/REC-SVG-20010904/DTD/svg10.dtd">
<svg version="1.0" xmlns="http://www.w3.org/2000/svg"
 width="126.000000pt" height="103.000000pt" viewBox="0 0 126.000000 103.000000"
 preserveAspectRatio="xMidYMid meet">

<g transform="translate(0.000000,103.000000) scale(0.100000,-0.100000)"
fill="#000000" stroke="none">
<path d="M1022 780 c-62 -31 -104 -74 -137 -140 -31 -61 -43 -70 -101 -70 -71
0 -183 -24 -258 -56 -33 -15 -76 -31 -94 -38 -40 -14 -39 -40 3 -44 106 -12
129 -186 36 -265 -96 -80 -240 -37 -275 82 -17 58 -42 63 -40 8 2 -51 47 -115
104 -147 94 -51 211 -22 275 68 27 39 30 52 30 117 0 67 -3 78 -33 120 l-32
46 45 20 c48 21 177 49 227 49 l30 0 -35 -43 c-30 -36 -33 -45 -22 -60 11 -15
17 -10 60 43 53 68 58 69 133 18 29 -20 42 -25 42 -15 0 17 -56 74 -80 82 -27
8 28 112 85 163 38 34 92 61 99 50 14 -20 76 -209 71 -217 -11 -19 -38 -12
-67 16 -20 19 -31 24 -39 16 -7 -7 1 -20 27 -42 30 -27 42 -32 68 -27 59 12
59 20 10 151 -25 66 -51 126 -58 133 -10 10 -24 6 -74 -18z"/>
<path d="M301 683 c-37 -25 -21 -73 25 -73 29 0 48 24 40 54 -7 29 -38 39 -65
19z"/>
<path d="M191 528 c-79 -97 -66 -138 42 -138 62 0 62 0 105 -50 40 -47 62 -56
62 -27 0 7 -21 36 -46 65 -42 48 -49 52 -89 52 -24 0 -46 3 -48 8 -3 4 10 25
28 47 l34 40 30 -29 30 -29 45 34 c25 19 48 40 50 47 10 23 -23 25 -50 3 -36
-28 -49 -27 -76 9 -34 46 -58 39 -117 -32z"/>
</g>
</svg>
]]>
 <g id="Notes">
  <rect height="2200" id="artboard" style="fill:white;opacity:1" width="3300" x="0" y="0"/>
  <line id="" style="fill:none;stroke:black;opacity:1;stroke-width:0.5;" x1="263" x2="3036" y1="292" y2="292"/>
  <text id="reftext1" style="stroke:none;fill:black;font-family:-apple-system,&quot;SF Pro Display&quot;,&quot;SF Pro Text&quot;,Helvetica,sans-serif;font-weight:bold;" transform="matrix(1 0 0 1 263 322)">Weight/Scale Variations</text>
  <text id="reftext2" style="stroke:none;fill:black;font-family:-apple-system,&quot;SF Pro Display&quot;,&quot;SF Pro Text&quot;,Helvetica,sans-serif;text-anchor:middle;" transform="matrix(1 0 0 1 559.711 322)">Ultralight</text>
  <text style="stroke:none;fill:black;font-family:-apple-system,&quot;SF Pro Display&quot;,&quot;SF Pro Text&quot;,Helvetica,sans-serif;text-anchor:middle;" transform="matrix(1 0 0 1 856.422 322)">Thin</text>
  <text style="stroke:none;fill:black;font-family:-apple-system,&quot;SF Pro Display&quot;,&quot;SF Pro Text&quot;,Helvetica,sans-serif;text-anchor:middle;" transform="matrix(1 0 0 1 1153.13 322)">Light</text>
  <text style="stroke:none;fill:black;font-family:-apple-system,&quot;SF Pro Display&quot;,&quot;SF Pro Text&quot;,Helvetica,sans-serif;text-anchor:middle;" transform="matrix(1 0 0 1 1449.84 322)">Regular</text>
  <text style="stroke:none;fill:black;font-family:-apple-system,&quot;SF Pro Display&quot;,&quot;SF Pro Text&quot;,Helvetica,sans-serif;text-anchor:middle;" transform="matrix(1 0 0 1 1746.56 322)">Medium</text>
  <text style="stroke:none;fill:black;font-family:-apple-system,&quot;SF Pro Display&quot;,&quot;SF Pro Text&quot;,Helvetica,sans-serif;text-anchor:middle;" transform="matrix(1 0 0 1 2043.27 322)">Semibold</text>
  <text style="stroke:none;fill:black;font-family:-apple-system,&quot;SF Pro Display&quot;,&quot;SF Pro Text&quot;,Helvetica,sans-serif;text-anchor:middle;" transform="matrix(1 0 0 1 2339.98 322)">Bold</text>
  <text style="stroke:none;fill:black;font-family:-apple-system,&quot;SF Pro Display&quot;,&quot;SF Pro Text&quot;,Helvetica,sans-serif;text-anchor:middle;" transform="matrix(1 0 0 1 2636.69 322)">Heavy</text>
  <text style="stroke:none;fill:black;font-family:-apple-system,&quot;SF Pro Display&quot;,&quot;SF Pro Text&quot;,Helvetica,sans-serif;text-anchor:middle;" transform="matrix(1 0 0 1 2933.4 322)">Black</text>
  <line id="" style="fill:none;stroke:black;opacity:1;stroke-width:0.5;" x1="263" x2="3036" y1="1903" y2="1903"/>
  <g id="" transform="matrix(1 0 0 1 263 1933)">
   <path d="M9.24805 0.830078C13.5547 0.830078 17.1387-2.74414 17.1387-7.05078C17.1387-11.3574 13.5449-14.9316 9.23828-14.9316C4.94141-14.9316 1.36719-11.3574 1.36719-7.05078C1.36719-2.74414 4.95117 0.830078 9.24805 0.830078ZM9.24805-0.654297C5.70312-0.654297 2.87109-3.49609 2.87109-7.05078C2.87109-10.6055 5.69336-13.4473 9.23828-13.4473C12.793-13.4473 15.6348-10.6055 15.6445-7.05078C15.6543-3.49609 12.8027-0.654297 9.24805-0.654297ZM6.39648-6.31836L8.50586-6.31836L8.50586-4.19922C8.50586-3.75977 8.79883-3.45703 9.22852-3.45703C9.67773-3.45703 9.9707-3.75977 9.9707-4.19922L9.9707-6.31836L12.0996-6.31836C12.5391-6.31836 12.8418-6.61133 12.8418-7.04102C12.8418-7.48047 12.5391-7.7832 12.0996-7.7832L9.9707-7.7832L9.9707-9.89258C9.9707-10.3418 9.67773-10.6445 9.22852-10.6445C8.79883-10.6445 8.50586-10.3418 8.50586-9.89258L8.50586-7.7832L6.39648-7.7832C5.94727-7.7832 5.64453-7.48047 5.64453-7.04102C5.64453-6.61133 5.94727-6.31836 6.39648-6.31836Z"/>
  </g>
  <g id="" transform="matrix(1 0 0 1 281.506 1933)">
   <path d="M11.709 2.91016C17.1582 2.91016 21.6699-1.61133 21.6699-7.05078C21.6699-12.5 17.1484-17.0117 11.6992-17.0117C6.25977-17.0117 1.74805-12.5 1.74805-7.05078C1.74805-1.61133 6.26953 2.91016 11.709 2.91016ZM11.709 1.25C7.09961 1.25 3.41797-2.44141 3.41797-7.05078C3.41797-11.6602 7.08984-15.3516 11.6992-15.3516C16.3086-15.3516 20-11.6602 20.0098-7.05078C20.0195-2.44141 16.3184 1.25 11.709 1.25ZM7.98828-6.23047L10.8789-6.23047L10.8789-3.32031C10.8789-2.83203 11.2109-2.5 11.6895-2.5C12.1777-2.5 12.5195-2.83203 12.5195-3.32031L12.5195-6.23047L15.4297-6.23047C15.918-6.23047 16.25-6.5625 16.25-7.04102C16.25-7.5293 15.918-7.87109 15.4297-7.87109L12.5195-7.87109L12.5195-10.7617C12.5195-11.2695 12.1777-11.6016 11.6895-11.6016C11.2109-11.6016 10.8789-11.2598 10.8789-10.7617L10.8789-7.87109L7.98828-7.87109C7.48047-7.87109 7.14844-7.5293 7.14844-7.04102C7.14844-6.5625 7.49023-6.23047 7.98828-6.23047Z"/>
  </g>
  <g id="" transform="matrix(1 0 0 1 304.924 1933)">
   <path d="M14.9707 5.66406C21.9336 5.66406 27.6953-0.0976562 27.6953-7.05078C27.6953-14.0137 21.9238-19.7754 14.9609-19.7754C8.00781-19.7754 2.25586-14.0137 2.25586-7.05078C2.25586-0.0976562 8.01758 5.66406 14.9707 5.66406ZM14.9707 3.84766C8.93555 3.84766 4.08203-1.01562 4.08203-7.05078C4.08203-13.0957 8.92578-17.9492 14.9609-17.9492C21.0059-17.9492 25.8594-13.0957 25.8691-7.05078C25.8789-1.01562 21.0156 3.84766 14.9707 3.84766ZM10.0586-6.14258L14.0625-6.14258L14.0625-2.12891C14.0625-1.5918 14.4336-1.2207 14.9512-1.2207C15.4883-1.2207 15.8594-1.5918 15.8594-2.12891L15.8594-6.14258L19.8828-6.14258C20.4102-6.14258 20.791-6.51367 20.791-7.03125C20.791-7.56836 20.4199-7.94922 19.8828-7.94922L15.8594-7.94922L15.8594-11.9531C15.8594-12.5098 15.4883-12.8809 14.9512-12.8809C14.4336-12.8809 14.0625-12.5 14.0625-11.9531L14.0625-7.94922L10.0586-7.94922C9.50195-7.94922 9.13086-7.56836 9.13086-7.03125C9.13086-6.51367 9.51172-6.14258 10.0586-6.14258Z"/>
  </g>
  <text style="stroke:none;fill:black;font-family:-apple-system,&quot;SF Pro Display&quot;,&quot;SF Pro Text&quot;,Helvetica,sans-serif;font-weight:bold;" transform="matrix(1 0 0 1 263 1953)">Design Variations</text>
  <text style="stroke:none;fill:black;font-family:-apple-system,&quot;SF Pro Display&quot;,&quot;SF Pro Text&quot;,Helvetica,sans-serif;" transform="matrix(1 0 0 1 263 1971)">Symbols are supported in up to nine weights and three scales.</text>
  <text style="stroke:none;fill:black;font-family:-apple-system,&quot;SF Pro Display&quot;,&quot;SF Pro Text&quot;,Helvetica,sans-serif;" transform="matrix(1 0 0 1 263 1989)">For optimal layout with text and other symbols, vertically align</text>
  <text style="stroke:none;fill:black;font-family:-apple-system,&quot;SF Pro Display&quot;,&quot;SF Pro Text&quot;,Helvetica,sans-serif;" transform="matrix(1 0 0 1 263 2007)">symbols with the adjacent text.</text>
  <line id="" style="fill:none;stroke:#00AEEF;stroke-width:0.5;opacity:1.0;" x1="776" x2="776" y1="1919" y2="1933"/>
  <g id="" transform="matrix(1 0 0 1 776 1933)">
   <path d="M3.31055 0.126953C3.82812 0.126953 4.08203-0.0683594 4.26758-0.605469L5.52734-4.0625L11.2891-4.0625L12.5488-0.605469C12.7344-0.0683594 12.9883 0.126953 13.4961 0.126953C14.0137 0.126953 14.3457-0.185547 14.3457-0.673828C14.3457-0.839844 14.3164-0.986328 14.2383-1.20117L9.6582-13.3887C9.43359-13.9941 9.0332-14.2871 8.4082-14.2871C7.80273-14.2871 7.39258-13.9941 7.17773-13.3984L2.59766-1.19141C2.51953-0.976562 2.49023-0.830078 2.49023-0.664062C2.49023-0.175781 2.80273 0.126953 3.31055 0.126953ZM6.00586-5.53711L8.37891-12.1094L8.42773-12.1094L10.8008-5.53711Z"/>
  </g>
  <line id="" style="fill:none;stroke:#00AEEF;stroke-width:0.5;opacity:1.0;" x1="792.836" x2="792.836" y1="1919" y2="1933"/>
  <text style="stroke:none;fill:black;font-family:-apple-system,&quot;SF Pro Display&quot;,&quot;SF Pro Text&quot;,Helvetica,sans-serif;font-weight:bold;" transform="matrix(1 0 0 1 776 1953)">Margins</text>
  <text style="stroke:none;fill:black;font-family:-apple-system,&quot;SF Pro Display&quot;,&quot;SF Pro Text&quot;,Helvetica,sans-serif;" transform="matrix(1 0 0 1 776 1971)">Leading and trailing margins on the left and right side of each symbol</text>
  <text style="stroke:none;fill:black;font-family:-apple-system,&quot;SF Pro Display&quot;,&quot;SF Pro Text&quot;,Helvetica,sans-serif;" transform="matrix(1 0 0 1 776 1989)">can be adjusted by modifying the x-location of the margin guidelines.</text>
  <text style="stroke:none;fill:black;font-family:-apple-system,&quot;SF Pro Display&quot;,&quot;SF Pro Text&quot;,Helvetica,sans-serif;" transform="matrix(1 0 0 1 776 2007)">Modifications are automatically applied proportionally to all</text>
  <text style="stroke:none;fill:black;font-family:-apple-system,&quot;SF Pro Display&quot;,&quot;SF Pro Text&quot;,Helvetica,sans-serif;" transform="matrix(1 0 0 1 776 2025)">scales and weights.</text>
  <g id="" transform="matrix(1 0 0 1 1289 1933)">
   <path d="M2.8418 1.86523L4.54102 3.57422C5.40039 4.44336 6.38672 4.38477 7.31445 3.35938L17.4902-7.85156C17.7539-7.76367 18.0273-7.7832 18.3398-7.8418L19.4043-8.03711L20.0684-7.36328L20.0293-6.80664C19.9902-6.30859 20.1172-5.92773 20.6055-5.44922L21.3672-4.70703C21.8457-4.22852 22.4609-4.19922 22.9297-4.66797L25.8398-7.58789C26.3086-8.05664 26.2891-8.65234 25.8105-9.13086L25.0391-9.89258C24.5605-10.3711 24.1895-10.5273 23.7109-10.4883L23.1348-10.4395L22.4902-11.0742L22.7344-12.1973C22.8613-12.7637 22.7051-13.2031 22.1191-13.7891L19.9219-15.9766C16.582-19.2969 12.1484-19.2188 9.25781-16.3281C8.83789-15.918 8.80859-15.3418 9.04297-14.9512C9.27734-14.5898 9.73633-14.3555 10.3809-14.5215C11.8457-14.8633 13.3691-14.9219 14.7949-13.9844L14.209-12.5293C14.0137-12.0508 13.9844-11.6504 14.1113-11.2891L3.04688-0.898438C2.06055 0.0195312 1.98242 0.996094 2.8418 1.86523ZM10.752-15.957C13.1836-17.7344 16.4746-17.4316 18.7012-15.2051L21.1328-12.793C21.3672-12.5586 21.4062-12.373 21.3379-12.0312L21.0156-10.5469L22.5195-9.0625L23.5059-9.12109C23.7598-9.13086 23.8379-9.11133 24.0332-8.91602L24.6094-8.33984L22.168-5.89844L21.5918-6.47461C21.3965-6.66992 21.3672-6.74805 21.377-7.01172L21.4453-7.98828L19.9512-9.47266L18.4277-9.21875C18.1055-9.15039 17.959-9.17969 17.7148-9.41406L15.7129-11.416C15.459-11.6504 15.4297-11.8164 15.5859-12.1875L16.4648-14.2773C14.9023-15.7324 12.8711-16.3574 10.8398-15.7617C10.6836-15.7227 10.625-15.8496 10.752-15.957ZM5.27344 2.30469L4.10156 1.14258C3.63281 0.683594 3.74023 0.341797 4.14062-0.0195312L14.9512-10.1953L16.416-8.71094L6.42578 2.27539C6.07422 2.67578 5.74219 2.77344 5.27344 2.30469Z"/>
  </g>
  <text style="stroke:none;fill:black;font-family:-apple-system,&quot;SF Pro Display&quot;,&quot;SF Pro Text&quot;,Helvetica,sans-serif;font-weight:bold;" transform="matrix(1 0 0 1 1289 1953)">Exporting</text>
  <text style="stroke:none;fill:black;font-family:-apple-system,&quot;SF Pro Display&quot;,&quot;SF Pro Text&quot;,Helvetica,sans-serif;" transform="matrix(1 0 0 1 1289 1971)">Symbols should be outlined when exporting to ensure the</text>
  <text style="stroke:none;fill:black;font-family:-apple-system,&quot;SF Pro Display&quot;,&quot;SF Pro Text&quot;,Helvetica,sans-serif;" transform="matrix(1 0 0 1 1289 1989)">design is preserved when submitting to Xcode.</text>
  <text id="template-version" style="stroke:none;fill:black;font-family:-apple-system,&quot;SF Pro Display&quot;,&quot;SF Pro Text&quot;,Helvetica,sans-serif;text-anchor:end;" transform="matrix(1 0 0 1 3036 1933)">Template v.2.0</text>
  <text style="stroke:none;fill:black;font-family:-apple-system,&quot;SF Pro Display&quot;,&quot;SF Pro Text&quot;,Helvetica,sans-serif;text-anchor:end;" transform="matrix(1 0 0 1 3036 1951)">Requires Xcode 12 or greater</text>
  <text style="stroke:none;fill:black;font-family:-apple-system,&quot;SF Pro Display&quot;,&quot;SF Pro Text&quot;,Helvetica,sans-serif;" transform="matrix(1 0 0 1 263 726)">Small</text>
  <text style="stroke:none;fill:black;font-family:-apple-system,&quot;SF Pro Display&quot;,&quot;SF Pro Text&quot;,Helvetica,sans-serif;" transform="matrix(1 0 0 1 263 1156)">Medium</text>
  <text style="stroke:none;fill:black;font-family:-apple-system,&quot;SF Pro Display&quot;,&quot;SF Pro Text&quot;,Helvetica,sans-serif;" transform="matrix(1 0 0 1 263 1586)">Large</text>
 </g>
 <g id="Guides">
  <g id="H-reference" style="fill:#27AAE1;stroke:none;" transform="matrix(1 0 0 1 339 696)">
   <path d="M0.976562 0L3.66211 0L12.9883-24.4629L45.752-24.4629L55.127 0L57.7637 0L30.6152-70.459L28.125-70.459ZM29.3457-67.1387L29.4434-67.1387L44.873-26.709L13.8672-26.709Z"/>
  </g>
  <line id="Baseline-S" style="fill:none;stroke:#27AAE1;opacity:1;stroke-width:0.5;" x1="263" x2="3036" y1="696" y2="696"/>
  <line id="Capline-S" style="fill:none;stroke:#27AAE1;opacity:1;stroke-width:0.5;" x1="263" x2="3036" y1="625.541" y2="625.541"/>
  <g id="H-reference" style="fill:#27AAE1;stroke:none;" transform="matrix(1 0 0 1 339 1126)">
   <path d="M0.976562 0L3.66211 0L12.9883-24.4629L45.752-24.4629L55.127 0L57.7637 0L30.6152-70.459L28.125-70.459ZM29.3457-67.1387L29.4434-67.1387L44.873-26.709L13.8672-26.709Z"/>
  </g>
  <line id="Baseline-M" style="fill:none;stroke:#27AAE1;opacity:1;stroke-width:0.5;" x1="263" x2="3036" y1="1126" y2="1126"/>
  <line id="Capline-M" style="fill:none;stroke:#27AAE1;opacity:1;stroke-width:0.5;" x1="263" x2="3036" y1="1055.54" y2="1055.54"/>
  <g id="H-reference" style="fill:#27AAE1;stroke:none;" transform="matrix(1 0 0 1 339 1556)">
   <path d="M0.976562 0L3.66211 0L12.9883-24.4629L45.752-24.4629L55.127 0L57.7637 0L30.6152-70.459L28.125-70.459ZM29.3457-67.1387L29.4434-67.1387L44.873-26.709L13.8672-26.709Z"/>
  </g>
  <line id="Baseline-L" style="fill:none;stroke:#27AAE1;opacity:1;stroke-width:0.5;" x1="263" x2="3036" y1="1556" y2="1556"/>
  <line id="Capline-L" style="fill:none;stroke:#27AAE1;opacity:1;stroke-width:0.5;" x1="263" x2="3036" y1="1485.54" y2="1485.54"/>
  <line id="left-margin" x1="1408.0331306887135" x2="1408.0331306887135" y1="1030.79" y2="1150.12" style="fill:none;stroke:#00AEEF;stroke-width:0.5;opacity:1.0;"/>
  <line id="right-margin" x1="1494.2268693112862" x2="1494.2268693112862" y1="1030.79" y2="1150.12" style="fill:none;stroke:#00AEEF;stroke-width:0.5;opacity:1.0;"/>
 </g>
 <g id="Symbols">
  <g id="Black-L" transform="matrix(1.0,0.0,0.0,1.0,2879.0850385884405,1475.3233447265625)">  <path fill-rule="nonzero" fill-opacity="1" preserveAspectRatio="xMidYMid meet" stroke-dasharray="none" fill="#000000" stroke-miterlimit="4" stroke-linejoin="miter" stroke-linecap="butt" version="1.0" stroke-width="1px" stroke-opacity="1" stroke="none" d="M90.187,22.061C84.716,24.797,81.01,28.592,78.098,34.416C75.362,39.799,74.303,40.593,69.185,40.593C62.919,40.593,53.036,42.711,46.417,45.535C43.505,46.859,39.711,48.271,38.122,48.888C34.592,50.124,34.681,52.418,38.387,52.771C47.741,53.83,49.771,69.185,41.564,76.156C33.092,83.216,20.385,79.421,17.296,68.92C15.796,63.802,13.59,63.361,13.766,68.214C13.943,72.715,17.914,78.362,22.944,81.186C31.239,85.687,41.564,83.128,47.212,75.186C49.594,71.744,49.859,70.597,49.859,64.861C49.859,58.948,49.594,57.978,46.947,54.271L44.123,50.212L48.094,48.447C52.33,46.594,63.714,44.123,68.126,44.123L70.773,44.123L67.685,47.918C65.037,51.094,64.773,51.889,65.743,53.212C66.714,54.536,67.243,54.095,71.038,49.418C75.715,43.417,76.156,43.329,82.775,47.829C85.334,49.594,86.481,50.035,86.481,49.153C86.481,47.653,81.539,42.623,79.421,41.917C77.039,41.211,81.892,32.033,86.922,27.533C90.276,24.532,95.041,22.15,95.659,23.12C96.894,24.885,102.365,41.564,101.924,42.27C100.953,43.946,98.571,43.329,96.012,40.858C94.247,39.181,93.276,38.74,92.57,39.446C91.952,40.064,92.658,41.211,94.953,43.152C97.6,45.535,98.659,45.976,100.953,45.535C106.16,44.476,106.16,43.77,101.836,32.21C99.63,26.386,97.335,21.091,96.718,20.473C95.835,19.591,94.6,19.944,90.187,22.061ZM90.187,22.061"/>
  <path stroke-linecap="butt" preserveAspectRatio="xMidYMid meet" stroke-linejoin="miter" stroke-width="1px" fill="#000000" version="1.0" fill-opacity="1" stroke-miterlimit="4" stroke-dasharray="none" fill-rule="nonzero" stroke="none" stroke-opacity="1" d="M26.562,30.621C23.297,32.828,24.709,37.063,28.768,37.063C31.327,37.063,33.004,34.945,32.298,32.298C31.68,29.739,28.945,28.856,26.562,30.621ZM26.562,30.621"/>
  <path version="1.0" fill-rule="nonzero" stroke-dasharray="none" stroke-opacity="1" preserveAspectRatio="xMidYMid meet" stroke-miterlimit="4" stroke="none" stroke-linejoin="miter" stroke-linecap="butt" fill-opacity="1" stroke-width="1px" fill="#000000" d="M16.855,44.299C9.884,52.859,11.031,56.477,20.561,56.477C26.033,56.477,26.033,56.477,29.827,60.89C33.357,65.037,35.298,65.831,35.298,63.272C35.298,62.655,33.445,60.096,31.239,57.536C27.533,53.301,26.915,52.948,23.385,52.948C21.267,52.948,19.326,52.683,19.149,52.242C18.885,51.889,20.032,50.035,21.62,48.094L24.621,44.564L27.268,47.123L29.915,49.682L33.886,46.682C36.093,45.005,38.122,43.152,38.299,42.535C39.181,40.505,36.269,40.328,33.886,42.27C30.71,44.741,29.562,44.652,27.18,41.476C24.179,37.416,22.061,38.034,16.855,44.299ZM16.855,44.299"/>
</g>
  <g id="Heavy-L" transform="matrix(1.0,0.0,0.0,1.0,2582.3750385884405,1475.3233447265625)">  <path stroke-opacity="1" version="1.0" stroke-miterlimit="4" stroke-linejoin="miter" fill-rule="nonzero" stroke-dasharray="none" stroke-width="1px" stroke="none" preserveAspectRatio="xMidYMid meet" stroke-linecap="butt" fill="#000000" fill-opacity="1" d="M90.187,22.061C84.716,24.797,81.01,28.592,78.098,34.416C75.362,39.799,74.303,40.593,69.185,40.593C62.919,40.593,53.036,42.711,46.417,45.535C43.505,46.859,39.711,48.271,38.122,48.888C34.592,50.124,34.681,52.418,38.387,52.771C47.741,53.83,49.771,69.185,41.564,76.156C33.092,83.216,20.385,79.421,17.296,68.92C15.796,63.802,13.59,63.361,13.766,68.214C13.943,72.715,17.914,78.362,22.944,81.186C31.239,85.687,41.564,83.128,47.212,75.186C49.594,71.744,49.859,70.597,49.859,64.861C49.859,58.948,49.594,57.978,46.947,54.271L44.123,50.212L48.094,48.447C52.33,46.594,63.714,44.123,68.126,44.123L70.773,44.123L67.685,47.918C65.037,51.094,64.773,51.889,65.743,53.212C66.714,54.536,67.243,54.095,71.038,49.418C75.715,43.417,76.156,43.329,82.775,47.829C85.334,49.594,86.481,50.035,86.481,49.153C86.481,47.653,81.539,42.623,79.421,41.917C77.039,41.211,81.892,32.033,86.922,27.533C90.276,24.532,95.041,22.15,95.659,23.12C96.894,24.885,102.365,41.564,101.924,42.27C100.953,43.946,98.571,43.329,96.012,40.858C94.247,39.181,93.276,38.74,92.57,39.446C91.952,40.064,92.658,41.211,94.953,43.152C97.6,45.535,98.659,45.976,100.953,45.535C106.16,44.476,106.16,43.77,101.836,32.21C99.63,26.386,97.335,21.091,96.718,20.473C95.835,19.591,94.6,19.944,90.187,22.061ZM90.187,22.061"/>
  <path fill-rule="nonzero" stroke-linejoin="miter" fill-opacity="1" stroke-dasharray="none" preserveAspectRatio="xMidYMid meet" fill="#000000" stroke-linecap="butt" stroke="none" stroke-width="1px" stroke-opacity="1" stroke-miterlimit="4" version="1.0" d="M26.562,30.621C23.297,32.828,24.709,37.063,28.768,37.063C31.327,37.063,33.004,34.945,32.298,32.298C31.68,29.739,28.945,28.856,26.562,30.621ZM26.562,30.621"/>
  <path fill-rule="nonzero" stroke-opacity="1" version="1.0" fill="#000000" stroke="none" stroke-miterlimit="4" stroke-width="1px" stroke-dasharray="none" preserveAspectRatio="xMidYMid meet" stroke-linejoin="miter" stroke-linecap="butt" fill-opacity="1" d="M16.855,44.299C9.884,52.859,11.031,56.477,20.561,56.477C26.033,56.477,26.033,56.477,29.827,60.89C33.357,65.037,35.298,65.831,35.298,63.272C35.298,62.655,33.445,60.096,31.239,57.536C27.533,53.301,26.915,52.948,23.385,52.948C21.267,52.948,19.326,52.683,19.149,52.242C18.885,51.889,20.032,50.035,21.62,48.094L24.621,44.564L27.268,47.123L29.915,49.682L33.886,46.682C36.093,45.005,38.122,43.152,38.299,42.535C39.181,40.505,36.269,40.328,33.886,42.27C30.71,44.741,29.562,44.652,27.18,41.476C24.179,37.416,22.061,38.034,16.855,44.299ZM16.855,44.299"/>
</g>
  <g id="Bold-L" transform="matrix(1.0,0.0,0.0,1.0,2285.6650385884404,1475.3233447265625)">  <path fill-opacity="1" fill-rule="nonzero" version="1.0" stroke-miterlimit="4" stroke-dasharray="none" fill="#000000" stroke="none" stroke-linejoin="miter" stroke-opacity="1" stroke-width="1px" preserveAspectRatio="xMidYMid meet" stroke-linecap="butt" d="M90.187,22.061C84.716,24.797,81.01,28.592,78.098,34.416C75.362,39.799,74.303,40.593,69.185,40.593C62.919,40.593,53.036,42.711,46.417,45.535C43.505,46.859,39.711,48.271,38.122,48.888C34.592,50.124,34.681,52.418,38.387,52.771C47.741,53.83,49.771,69.185,41.564,76.156C33.092,83.216,20.385,79.421,17.296,68.92C15.796,63.802,13.59,63.361,13.766,68.214C13.943,72.715,17.914,78.362,22.944,81.186C31.239,85.687,41.564,83.128,47.212,75.186C49.594,71.744,49.859,70.597,49.859,64.861C49.859,58.948,49.594,57.978,46.947,54.271L44.123,50.212L48.094,48.447C52.33,46.594,63.714,44.123,68.126,44.123L70.773,44.123L67.685,47.918C65.037,51.094,64.773,51.889,65.743,53.212C66.714,54.536,67.243,54.095,71.038,49.418C75.715,43.417,76.156,43.329,82.775,47.829C85.334,49.594,86.481,50.035,86.481,49.153C86.481,47.653,81.539,42.623,79.421,41.917C77.039,41.211,81.892,32.033,86.922,27.533C90.276,24.532,95.041,22.15,95.659,23.12C96.894,24.885,102.365,41.564,101.924,42.27C100.953,43.946,98.571,43.329,96.012,40.858C94.247,39.181,93.276,38.74,92.57,39.446C91.952,40.064,92.658,41.211,94.953,43.152C97.6,45.535,98.659,45.976,100.953,45.535C106.16,44.476,106.16,43.77,101.836,32.21C99.63,26.386,97.335,21.091,96.718,20.473C95.835,19.591,94.6,19.944,90.187,22.061ZM90.187,22.061"/>
  <path stroke="none" stroke-linejoin="miter" version="1.0" fill-rule="nonzero" stroke-dasharray="none" stroke-width="1px" stroke-opacity="1" stroke-miterlimit="4" preserveAspectRatio="xMidYMid meet" fill="#000000" stroke-linecap="butt" fill-opacity="1" d="M26.562,30.621C23.297,32.828,24.709,37.063,28.768,37.063C31.327,37.063,33.004,34.945,32.298,32.298C31.68,29.739,28.945,28.856,26.562,30.621ZM26.562,30.621"/>
  <path preserveAspectRatio="xMidYMid meet" fill-rule="nonzero" stroke-miterlimit="4" fill="#000000" stroke-dasharray="none" fill-opacity="1" stroke-linecap="butt" version="1.0" stroke-linejoin="miter" stroke="none" stroke-width="1px" stroke-opacity="1" d="M16.855,44.299C9.884,52.859,11.031,56.477,20.561,56.477C26.033,56.477,26.033,56.477,29.827,60.89C33.357,65.037,35.298,65.831,35.298,63.272C35.298,62.655,33.445,60.096,31.239,57.536C27.533,53.301,26.915,52.948,23.385,52.948C21.267,52.948,19.326,52.683,19.149,52.242C18.885,51.889,20.032,50.035,21.62,48.094L24.621,44.564L27.268,47.123L29.915,49.682L33.886,46.682C36.093,45.005,38.122,43.152,38.299,42.535C39.181,40.505,36.269,40.328,33.886,42.27C30.71,44.741,29.562,44.652,27.18,41.476C24.179,37.416,22.061,38.034,16.855,44.299ZM16.855,44.299"/>
</g>
  <g id="Semibold-L" transform="matrix(1.0,0.0,0.0,1.0,1988.9550385884404,1475.3233447265625)">  <path stroke="none" preserveAspectRatio="xMidYMid meet" stroke-miterlimit="4" fill-rule="nonzero" fill="#000000" stroke-width="1px" fill-opacity="1" stroke-linecap="butt" stroke-dasharray="none" stroke-linejoin="miter" version="1.0" stroke-opacity="1" d="M90.187,22.061C84.716,24.797,81.01,28.592,78.098,34.416C75.362,39.799,74.303,40.593,69.185,40.593C62.919,40.593,53.036,42.711,46.417,45.535C43.505,46.859,39.711,48.271,38.122,48.888C34.592,50.124,34.681,52.418,38.387,52.771C47.741,53.83,49.771,69.185,41.564,76.156C33.092,83.216,20.385,79.421,17.296,68.92C15.796,63.802,13.59,63.361,13.766,68.214C13.943,72.715,17.914,78.362,22.944,81.186C31.239,85.687,41.564,83.128,47.212,75.186C49.594,71.744,49.859,70.597,49.859,64.861C49.859,58.948,49.594,57.978,46.947,54.271L44.123,50.212L48.094,48.447C52.33,46.594,63.714,44.123,68.126,44.123L70.773,44.123L67.685,47.918C65.037,51.094,64.773,51.889,65.743,53.212C66.714,54.536,67.243,54.095,71.038,49.418C75.715,43.417,76.156,43.329,82.775,47.829C85.334,49.594,86.481,50.035,86.481,49.153C86.481,47.653,81.539,42.623,79.421,41.917C77.039,41.211,81.892,32.033,86.922,27.533C90.276,24.532,95.041,22.15,95.659,23.12C96.894,24.885,102.365,41.564,101.924,42.27C100.953,43.946,98.571,43.329,96.012,40.858C94.247,39.181,93.276,38.74,92.57,39.446C91.952,40.064,92.658,41.211,94.953,43.152C97.6,45.535,98.659,45.976,100.953,45.535C106.16,44.476,106.16,43.77,101.836,32.21C99.63,26.386,97.335,21.091,96.718,20.473C95.835,19.591,94.6,19.944,90.187,22.061ZM90.187,22.061"/>
  <path fill-opacity="1" stroke="none" fill-rule="nonzero" stroke-dasharray="none" stroke-linecap="butt" stroke-opacity="1" preserveAspectRatio="xMidYMid meet" stroke-linejoin="miter" fill="#000000" stroke-width="1px" stroke-miterlimit="4" version="1.0" d="M26.562,30.621C23.297,32.828,24.709,37.063,28.768,37.063C31.327,37.063,33.004,34.945,32.298,32.298C31.68,29.739,28.945,28.856,26.562,30.621ZM26.562,30.621"/>
  <path stroke-dasharray="none" stroke="none" fill="#000000" preserveAspectRatio="xMidYMid meet" stroke-opacity="1" stroke-miterlimit="4" fill-opacity="1" stroke-width="1px" stroke-linecap="butt" version="1.0" fill-rule="nonzero" stroke-linejoin="miter" d="M16.855,44.299C9.884,52.859,11.031,56.477,20.561,56.477C26.033,56.477,26.033,56.477,29.827,60.89C33.357,65.037,35.298,65.831,35.298,63.272C35.298,62.655,33.445,60.096,31.239,57.536C27.533,53.301,26.915,52.948,23.385,52.948C21.267,52.948,19.326,52.683,19.149,52.242C18.885,51.889,20.032,50.035,21.62,48.094L24.621,44.564L27.268,47.123L29.915,49.682L33.886,46.682C36.093,45.005,38.122,43.152,38.299,42.535C39.181,40.505,36.269,40.328,33.886,42.27C30.71,44.741,29.562,44.652,27.18,41.476C24.179,37.416,22.061,38.034,16.855,44.299ZM16.855,44.299"/>
</g>
  <g id="Medium-L" transform="matrix(1.0,0.0,0.0,1.0,1692.2450385884404,1475.3233447265625)">  <path version="1.0" stroke-width="1px" stroke-linejoin="miter" stroke-miterlimit="4" fill-rule="nonzero" stroke-dasharray="none" stroke="none" stroke-linecap="butt" fill="#000000" fill-opacity="1" stroke-opacity="1" preserveAspectRatio="xMidYMid meet" d="M90.187,22.061C84.716,24.797,81.01,28.592,78.098,34.416C75.362,39.799,74.303,40.593,69.185,40.593C62.919,40.593,53.036,42.711,46.417,45.535C43.505,46.859,39.711,48.271,38.122,48.888C34.592,50.124,34.681,52.418,38.387,52.771C47.741,53.83,49.771,69.185,41.564,76.156C33.092,83.216,20.385,79.421,17.296,68.92C15.796,63.802,13.59,63.361,13.766,68.214C13.943,72.715,17.914,78.362,22.944,81.186C31.239,85.687,41.564,83.128,47.212,75.186C49.594,71.744,49.859,70.597,49.859,64.861C49.859,58.948,49.594,57.978,46.947,54.271L44.123,50.212L48.094,48.447C52.33,46.594,63.714,44.123,68.126,44.123L70.773,44.123L67.685,47.918C65.037,51.094,64.773,51.889,65.743,53.212C66.714,54.536,67.243,54.095,71.038,49.418C75.715,43.417,76.156,43.329,82.775,47.829C85.334,49.594,86.481,50.035,86.481,49.153C86.481,47.653,81.539,42.623,79.421,41.917C77.039,41.211,81.892,32.033,86.922,27.533C90.276,24.532,95.041,22.15,95.659,23.12C96.894,24.885,102.365,41.564,101.924,42.27C100.953,43.946,98.571,43.329,96.012,40.858C94.247,39.181,93.276,38.74,92.57,39.446C91.952,40.064,92.658,41.211,94.953,43.152C97.6,45.535,98.659,45.976,100.953,45.535C106.16,44.476,106.16,43.77,101.836,32.21C99.63,26.386,97.335,21.091,96.718,20.473C95.835,19.591,94.6,19.944,90.187,22.061ZM90.187,22.061"/>
  <path fill="#000000" stroke-miterlimit="4" preserveAspectRatio="xMidYMid meet" stroke-linejoin="miter" stroke-linecap="butt" fill-opacity="1" stroke="none" stroke-dasharray="none" stroke-opacity="1" fill-rule="nonzero" version="1.0" stroke-width="1px" d="M26.562,30.621C23.297,32.828,24.709,37.063,28.768,37.063C31.327,37.063,33.004,34.945,32.298,32.298C31.68,29.739,28.945,28.856,26.562,30.621ZM26.562,30.621"/>
  <path stroke-linejoin="miter" version="1.0" stroke-miterlimit="4" fill-rule="nonzero" fill-opacity="1" stroke-opacity="1" preserveAspectRatio="xMidYMid meet" stroke-width="1px" fill="#000000" stroke-dasharray="none" stroke="none" stroke-linecap="butt" d="M16.855,44.299C9.884,52.859,11.031,56.477,20.561,56.477C26.033,56.477,26.033,56.477,29.827,60.89C33.357,65.037,35.298,65.831,35.298,63.272C35.298,62.655,33.445,60.096,31.239,57.536C27.533,53.301,26.915,52.948,23.385,52.948C21.267,52.948,19.326,52.683,19.149,52.242C18.885,51.889,20.032,50.035,21.62,48.094L24.621,44.564L27.268,47.123L29.915,49.682L33.886,46.682C36.093,45.005,38.122,43.152,38.299,42.535C39.181,40.505,36.269,40.328,33.886,42.27C30.71,44.741,29.562,44.652,27.18,41.476C24.179,37.416,22.061,38.034,16.855,44.299ZM16.855,44.299"/>
</g>
  <g id="Regular-L" transform="matrix(1.0,0.0,0.0,1.0,1395.5350385884403,1475.3233447265625)">  <path stroke-linecap="butt" stroke-miterlimit="4" stroke="none" stroke-width="1px" stroke-linejoin="miter" version="1.0" fill-opacity="1" fill="#000000" stroke-opacity="1" stroke-dasharray="none" fill-rule="nonzero" preserveAspectRatio="xMidYMid meet" d="M90.187,22.061C84.716,24.797,81.01,28.592,78.098,34.416C75.362,39.799,74.303,40.593,69.185,40.593C62.919,40.593,53.036,42.711,46.417,45.535C43.505,46.859,39.711,48.271,38.122,48.888C34.592,50.124,34.681,52.418,38.387,52.771C47.741,53.83,49.771,69.185,41.564,76.156C33.092,83.216,20.385,79.421,17.296,68.92C15.796,63.802,13.59,63.361,13.766,68.214C13.943,72.715,17.914,78.362,22.944,81.186C31.239,85.687,41.564,83.128,47.212,75.186C49.594,71.744,49.859,70.597,49.859,64.861C49.859,58.948,49.594,57.978,46.947,54.271L44.123,50.212L48.094,48.447C52.33,46.594,63.714,44.123,68.126,44.123L70.773,44.123L67.685,47.918C65.037,51.094,64.773,51.889,65.743,53.212C66.714,54.536,67.243,54.095,71.038,49.418C75.715,43.417,76.156,43.329,82.775,47.829C85.334,49.594,86.481,50.035,86.481,49.153C86.481,47.653,81.539,42.623,79.421,41.917C77.039,41.211,81.892,32.033,86.922,27.533C90.276,24.532,95.041,22.15,95.659,23.12C96.894,24.885,102.365,41.564,101.924,42.27C100.953,43.946,98.571,43.329,96.012,40.858C94.247,39.181,93.276,38.74,92.57,39.446C91.952,40.064,92.658,41.211,94.953,43.152C97.6,45.535,98.659,45.976,100.953,45.535C106.16,44.476,106.16,43.77,101.836,32.21C99.63,26.386,97.335,21.091,96.718,20.473C95.835,19.591,94.6,19.944,90.187,22.061ZM90.187,22.061"/>
  <path stroke-linejoin="miter" stroke-miterlimit="4" version="1.0" stroke-dasharray="none" stroke-linecap="butt" stroke="none" preserveAspectRatio="xMidYMid meet" stroke-width="1px" stroke-opacity="1" fill-rule="nonzero" fill-opacity="1" fill="#000000" d="M26.562,30.621C23.297,32.828,24.709,37.063,28.768,37.063C31.327,37.063,33.004,34.945,32.298,32.298C31.68,29.739,28.945,28.856,26.562,30.621ZM26.562,30.621"/>
  <path stroke="none" stroke-width="1px" fill-opacity="1" version="1.0" fill="#000000" stroke-linejoin="miter" stroke-miterlimit="4" stroke-dasharray="none" stroke-linecap="butt" preserveAspectRatio="xMidYMid meet" stroke-opacity="1" fill-rule="nonzero" d="M16.855,44.299C9.884,52.859,11.031,56.477,20.561,56.477C26.033,56.477,26.033,56.477,29.827,60.89C33.357,65.037,35.298,65.831,35.298,63.272C35.298,62.655,33.445,60.096,31.239,57.536C27.533,53.301,26.915,52.948,23.385,52.948C21.267,52.948,19.326,52.683,19.149,52.242C18.885,51.889,20.032,50.035,21.62,48.094L24.621,44.564L27.268,47.123L29.915,49.682L33.886,46.682C36.093,45.005,38.122,43.152,38.299,42.535C39.181,40.505,36.269,40.328,33.886,42.27C30.71,44.741,29.562,44.652,27.18,41.476C24.179,37.416,22.061,38.034,16.855,44.299ZM16.855,44.299"/>
</g>
  <g id="Light-L" transform="matrix(1.0,0.0,0.0,1.0,1098.8250385884405,1475.3233447265625)">  <path fill-rule="nonzero" stroke-opacity="1" stroke-dasharray="none" stroke="none" stroke-linecap="butt" stroke-linejoin="miter" stroke-width="1px" version="1.0" stroke-miterlimit="4" fill="#000000" preserveAspectRatio="xMidYMid meet" fill-opacity="1" d="M90.187,22.061C84.716,24.797,81.01,28.592,78.098,34.416C75.362,39.799,74.303,40.593,69.185,40.593C62.919,40.593,53.036,42.711,46.417,45.535C43.505,46.859,39.711,48.271,38.122,48.888C34.592,50.124,34.681,52.418,38.387,52.771C47.741,53.83,49.771,69.185,41.564,76.156C33.092,83.216,20.385,79.421,17.296,68.92C15.796,63.802,13.59,63.361,13.766,68.214C13.943,72.715,17.914,78.362,22.944,81.186C31.239,85.687,41.564,83.128,47.212,75.186C49.594,71.744,49.859,70.597,49.859,64.861C49.859,58.948,49.594,57.978,46.947,54.271L44.123,50.212L48.094,48.447C52.33,46.594,63.714,44.123,68.126,44.123L70.773,44.123L67.685,47.918C65.037,51.094,64.773,51.889,65.743,53.212C66.714,54.536,67.243,54.095,71.038,49.418C75.715,43.417,76.156,43.329,82.775,47.829C85.334,49.594,86.481,50.035,86.481,49.153C86.481,47.653,81.539,42.623,79.421,41.917C77.039,41.211,81.892,32.033,86.922,27.533C90.276,24.532,95.041,22.15,95.659,23.12C96.894,24.885,102.365,41.564,101.924,42.27C100.953,43.946,98.571,43.329,96.012,40.858C94.247,39.181,93.276,38.74,92.57,39.446C91.952,40.064,92.658,41.211,94.953,43.152C97.6,45.535,98.659,45.976,100.953,45.535C106.16,44.476,106.16,43.77,101.836,32.21C99.63,26.386,97.335,21.091,96.718,20.473C95.835,19.591,94.6,19.944,90.187,22.061ZM90.187,22.061"/>
  <path stroke-width="1px" stroke="none" stroke-opacity="1" fill="#000000" fill-rule="nonzero" fill-opacity="1" stroke-dasharray="none" stroke-linejoin="miter" stroke-linecap="butt" stroke-miterlimit="4" version="1.0" preserveAspectRatio="xMidYMid meet" d="M26.562,30.621C23.297,32.828,24.709,37.063,28.768,37.063C31.327,37.063,33.004,34.945,32.298,32.298C31.68,29.739,28.945,28.856,26.562,30.621ZM26.562,30.621"/>
  <path stroke-dasharray="none" stroke-miterlimit="4" version="1.0" stroke-width="1px" fill-rule="nonzero" fill-opacity="1" stroke-opacity="1" stroke-linecap="butt" stroke="none" stroke-linejoin="miter" preserveAspectRatio="xMidYMid meet" fill="#000000" d="M16.855,44.299C9.884,52.859,11.031,56.477,20.561,56.477C26.033,56.477,26.033,56.477,29.827,60.89C33.357,65.037,35.298,65.831,35.298,63.272C35.298,62.655,33.445,60.096,31.239,57.536C27.533,53.301,26.915,52.948,23.385,52.948C21.267,52.948,19.326,52.683,19.149,52.242C18.885,51.889,20.032,50.035,21.62,48.094L24.621,44.564L27.268,47.123L29.915,49.682L33.886,46.682C36.093,45.005,38.122,43.152,38.299,42.535C39.181,40.505,36.269,40.328,33.886,42.27C30.71,44.741,29.562,44.652,27.18,41.476C24.179,37.416,22.061,38.034,16.855,44.299ZM16.855,44.299"/>
</g>
  <g id="Thin-L" transform="matrix(1.0,0.0,0.0,1.0,802.1150385884406,1475.3233447265625)">  <path preserveAspectRatio="xMidYMid meet" stroke-dasharray="none" stroke-linecap="butt" stroke-miterlimit="4" version="1.0" stroke-opacity="1" fill-opacity="1" stroke-width="1px" stroke="none" fill="#000000" fill-rule="nonzero" stroke-linejoin="miter" d="M90.187,22.061C84.716,24.797,81.01,28.592,78.098,34.416C75.362,39.799,74.303,40.593,69.185,40.593C62.919,40.593,53.036,42.711,46.417,45.535C43.505,46.859,39.711,48.271,38.122,48.888C34.592,50.124,34.681,52.418,38.387,52.771C47.741,53.83,49.771,69.185,41.564,76.156C33.092,83.216,20.385,79.421,17.296,68.92C15.796,63.802,13.59,63.361,13.766,68.214C13.943,72.715,17.914,78.362,22.944,81.186C31.239,85.687,41.564,83.128,47.212,75.186C49.594,71.744,49.859,70.597,49.859,64.861C49.859,58.948,49.594,57.978,46.947,54.271L44.123,50.212L48.094,48.447C52.33,46.594,63.714,44.123,68.126,44.123L70.773,44.123L67.685,47.918C65.037,51.094,64.773,51.889,65.743,53.212C66.714,54.536,67.243,54.095,71.038,49.418C75.715,43.417,76.156,43.329,82.775,47.829C85.334,49.594,86.481,50.035,86.481,49.153C86.481,47.653,81.539,42.623,79.421,41.917C77.039,41.211,81.892,32.033,86.922,27.533C90.276,24.532,95.041,22.15,95.659,23.12C96.894,24.885,102.365,41.564,101.924,42.27C100.953,43.946,98.571,43.329,96.012,40.858C94.247,39.181,93.276,38.74,92.57,39.446C91.952,40.064,92.658,41.211,94.953,43.152C97.6,45.535,98.659,45.976,100.953,45.535C106.16,44.476,106.16,43.77,101.836,32.21C99.63,26.386,97.335,21.091,96.718,20.473C95.835,19.591,94.6,19.944,90.187,22.061ZM90.187,22.061"/>
  <path stroke-linecap="butt" stroke-width="1px" stroke-opacity="1" version="1.0" stroke-dasharray="none" fill-opacity="1" stroke-miterlimit="4" stroke="none" stroke-linejoin="miter" fill="#000000" fill-rule="nonzero" preserveAspectRatio="xMidYMid meet" d="M26.562,30.621C23.297,32.828,24.709,37.063,28.768,37.063C31.327,37.063,33.004,34.945,32.298,32.298C31.68,29.739,28.945,28.856,26.562,30.621ZM26.562,30.621"/>
  <path stroke-linejoin="miter" fill-rule="nonzero" fill-opacity="1" fill="#000000" preserveAspectRatio="xMidYMid meet" stroke-width="1px" stroke-linecap="butt" stroke="none" stroke-miterlimit="4" stroke-dasharray="none" version="1.0" stroke-opacity="1" d="M16.855,44.299C9.884,52.859,11.031,56.477,20.561,56.477C26.033,56.477,26.033,56.477,29.827,60.89C33.357,65.037,35.298,65.831,35.298,63.272C35.298,62.655,33.445,60.096,31.239,57.536C27.533,53.301,26.915,52.948,23.385,52.948C21.267,52.948,19.326,52.683,19.149,52.242C18.885,51.889,20.032,50.035,21.62,48.094L24.621,44.564L27.268,47.123L29.915,49.682L33.886,46.682C36.093,45.005,38.122,43.152,38.299,42.535C39.181,40.505,36.269,40.328,33.886,42.27C30.71,44.741,29.562,44.652,27.18,41.476C24.179,37.416,22.061,38.034,16.855,44.299ZM16.855,44.299"/>
</g>
  <g id="Ultralight-L" transform="matrix(1.0,0.0,0.0,1.0,505.4050385884405,1475.3233447265625)">  <path fill-rule="nonzero" stroke-width="1px" fill-opacity="1" stroke-linecap="butt" preserveAspectRatio="xMidYMid meet" fill="#000000" stroke-linejoin="miter" stroke="none" stroke-dasharray="none" version="1.0" stroke-opacity="1" stroke-miterlimit="4" d="M90.187,22.061C84.716,24.797,81.01,28.592,78.098,34.416C75.362,39.799,74.303,40.593,69.185,40.593C62.919,40.593,53.036,42.711,46.417,45.535C43.505,46.859,39.711,48.271,38.122,48.888C34.592,50.124,34.681,52.418,38.387,52.771C47.741,53.83,49.771,69.185,41.564,76.156C33.092,83.216,20.385,79.421,17.296,68.92C15.796,63.802,13.59,63.361,13.766,68.214C13.943,72.715,17.914,78.362,22.944,81.186C31.239,85.687,41.564,83.128,47.212,75.186C49.594,71.744,49.859,70.597,49.859,64.861C49.859,58.948,49.594,57.978,46.947,54.271L44.123,50.212L48.094,48.447C52.33,46.594,63.714,44.123,68.126,44.123L70.773,44.123L67.685,47.918C65.037,51.094,64.773,51.889,65.743,53.212C66.714,54.536,67.243,54.095,71.038,49.418C75.715,43.417,76.156,43.329,82.775,47.829C85.334,49.594,86.481,50.035,86.481,49.153C86.481,47.653,81.539,42.623,79.421,41.917C77.039,41.211,81.892,32.033,86.922,27.533C90.276,24.532,95.041,22.15,95.659,23.12C96.894,24.885,102.365,41.564,101.924,42.27C100.953,43.946,98.571,43.329,96.012,40.858C94.247,39.181,93.276,38.74,92.57,39.446C91.952,40.064,92.658,41.211,94.953,43.152C97.6,45.535,98.659,45.976,100.953,45.535C106.16,44.476,106.16,43.77,101.836,32.21C99.63,26.386,97.335,21.091,96.718,20.473C95.835,19.591,94.6,19.944,90.187,22.061ZM90.187,22.061"/>
  <path version="1.0" stroke-miterlimit="4" stroke-linecap="butt" fill-rule="nonzero" fill="#000000" stroke-dasharray="none" preserveAspectRatio="xMidYMid meet" stroke-linejoin="miter" stroke-opacity="1" fill-opacity="1" stroke="none" stroke-width="1px" d="M26.562,30.621C23.297,32.828,24.709,37.063,28.768,37.063C31.327,37.063,33.004,34.945,32.298,32.298C31.68,29.739,28.945,28.856,26.562,30.621ZM26.562,30.621"/>
  <path stroke-miterlimit="4" preserveAspectRatio="xMidYMid meet" fill-rule="nonzero" stroke-opacity="1" stroke-width="1px" stroke="none" version="1.0" fill="#000000" stroke-linejoin="miter" fill-opacity="1" stroke-dasharray="none" stroke-linecap="butt" d="M16.855,44.299C9.884,52.859,11.031,56.477,20.561,56.477C26.033,56.477,26.033,56.477,29.827,60.89C33.357,65.037,35.298,65.831,35.298,63.272C35.298,62.655,33.445,60.096,31.239,57.536C27.533,53.301,26.915,52.948,23.385,52.948C21.267,52.948,19.326,52.683,19.149,52.242C18.885,51.889,20.032,50.035,21.62,48.094L24.621,44.564L27.268,47.123L29.915,49.682L33.886,46.682C36.093,45.005,38.122,43.152,38.299,42.535C39.181,40.505,36.269,40.328,33.886,42.27C30.71,44.741,29.562,44.652,27.18,41.476C24.179,37.416,22.061,38.034,16.855,44.299ZM16.855,44.299"/>
</g>
  <g id="Black-M" transform="matrix(1.0,0.0,0.0,1.0,2891.5831306887135,1055.5400390625)">  <path fill-rule="nonzero" fill-opacity="1" preserveAspectRatio="xMidYMid meet" stroke-dasharray="none" fill="#000000" stroke-miterlimit="4" stroke-linejoin="miter" stroke-linecap="butt" version="1.0" stroke-width="1px" stroke-opacity="1" stroke="none" d="M69.913,17.102C65.671,19.223,62.798,22.164,60.541,26.679C58.42,30.852,57.599,31.468,53.632,31.468C48.775,31.468,41.113,33.109,35.982,35.298C33.725,36.325,30.783,37.419,29.552,37.898C26.816,38.856,26.884,40.634,29.757,40.908C37.009,41.729,38.582,53.632,32.22,59.036C25.653,64.508,15.802,61.567,13.408,53.426C12.245,49.459,10.535,49.117,10.672,52.879C10.808,56.368,13.887,60.746,17.786,62.935C24.216,66.424,32.22,64.44,36.598,58.283C38.445,55.615,38.65,54.726,38.65,50.28C38.65,45.696,38.445,44.944,36.393,42.071L34.204,38.924L37.282,37.556C40.566,36.119,49.39,34.204,52.811,34.204L54.863,34.204L52.469,37.145C50.416,39.608,50.211,40.224,50.964,41.25C51.716,42.276,52.127,41.934,55.068,38.308C58.694,33.657,59.036,33.588,64.166,37.077C66.15,38.445,67.04,38.787,67.04,38.103C67.04,36.94,63.209,33.041,61.567,32.494C59.72,31.946,63.482,24.832,67.382,21.343C69.981,19.017,73.675,17.17,74.154,17.923C75.112,19.291,79.353,32.22,79.011,32.767C78.258,34.067,76.411,33.588,74.428,31.673C73.059,30.373,72.307,30.031,71.76,30.578C71.281,31.057,71.828,31.946,73.607,33.451C75.659,35.298,76.48,35.64,78.258,35.298C82.294,34.477,82.294,33.93,78.943,24.969C77.232,20.454,75.454,16.349,74.975,15.871C74.291,15.187,73.333,15.46,69.913,17.102ZM69.913,17.102"/>
  <path stroke-linecap="butt" preserveAspectRatio="xMidYMid meet" stroke-linejoin="miter" stroke-width="1px" fill="#000000" version="1.0" fill-opacity="1" stroke-miterlimit="4" stroke-dasharray="none" fill-rule="nonzero" stroke="none" stroke-opacity="1" d="M20.591,23.737C18.06,25.448,19.154,28.731,22.301,28.731C24.285,28.731,25.584,27.089,25.037,25.037C24.558,23.053,22.438,22.369,20.591,23.737ZM20.591,23.737"/>
  <path version="1.0" fill-rule="nonzero" stroke-dasharray="none" stroke-opacity="1" preserveAspectRatio="xMidYMid meet" stroke-miterlimit="4" stroke="none" stroke-linejoin="miter" stroke-linecap="butt" fill-opacity="1" stroke-width="1px" fill="#000000" d="M13.066,34.341C7.662,40.976,8.551,43.781,15.939,43.781C20.18,43.781,20.18,43.781,23.122,47.201C25.858,50.416,27.363,51.032,27.363,49.048C27.363,48.569,25.927,46.586,24.216,44.602C21.343,41.318,20.864,41.045,18.128,41.045C16.486,41.045,14.981,40.839,14.844,40.497C14.639,40.224,15.529,38.787,16.76,37.282L19.086,34.546L21.138,36.53L23.19,38.514L26.269,36.188C27.979,34.888,29.552,33.451,29.689,32.973C30.373,31.399,28.116,31.262,26.269,32.767C23.806,34.683,22.917,34.614,21.07,32.152C18.744,29.005,17.102,29.484,13.066,34.341ZM13.066,34.341"/>
</g>
  <g id="Heavy-M" transform="matrix(1.0,0.0,0.0,1.0,2594.8731306887134,1055.5400390625)">  <path stroke-opacity="1" version="1.0" stroke-miterlimit="4" stroke-linejoin="miter" fill-rule="nonzero" stroke-dasharray="none" stroke-width="1px" stroke="none" preserveAspectRatio="xMidYMid meet" stroke-linecap="butt" fill="#000000" fill-opacity="1" d="M69.913,17.102C65.671,19.223,62.798,22.164,60.541,26.679C58.42,30.852,57.599,31.468,53.632,31.468C48.775,31.468,41.113,33.109,35.982,35.298C33.725,36.325,30.783,37.419,29.552,37.898C26.816,38.856,26.884,40.634,29.757,40.908C37.009,41.729,38.582,53.632,32.22,59.036C25.653,64.508,15.802,61.567,13.408,53.426C12.245,49.459,10.535,49.117,10.672,52.879C10.808,56.368,13.887,60.746,17.786,62.935C24.216,66.424,32.22,64.44,36.598,58.283C38.445,55.615,38.65,54.726,38.65,50.28C38.65,45.696,38.445,44.944,36.393,42.071L34.204,38.924L37.282,37.556C40.566,36.119,49.39,34.204,52.811,34.204L54.863,34.204L52.469,37.145C50.416,39.608,50.211,40.224,50.964,41.25C51.716,42.276,52.127,41.934,55.068,38.308C58.694,33.657,59.036,33.588,64.166,37.077C66.15,38.445,67.04,38.787,67.04,38.103C67.04,36.94,63.209,33.041,61.567,32.494C59.72,31.946,63.482,24.832,67.382,21.343C69.981,19.017,73.675,17.17,74.154,17.923C75.112,19.291,79.353,32.22,79.011,32.767C78.258,34.067,76.411,33.588,74.428,31.673C73.059,30.373,72.307,30.031,71.76,30.578C71.281,31.057,71.828,31.946,73.607,33.451C75.659,35.298,76.48,35.64,78.258,35.298C82.294,34.477,82.294,33.93,78.943,24.969C77.232,20.454,75.454,16.349,74.975,15.871C74.291,15.187,73.333,15.46,69.913,17.102ZM69.913,17.102"/>
  <path fill-rule="nonzero" stroke-linejoin="miter" fill-opacity="1" stroke-dasharray="none" preserveAspectRatio="xMidYMid meet" fill="#000000" stroke-linecap="butt" stroke="none" stroke-width="1px" stroke-opacity="1" stroke-miterlimit="4" version="1.0" d="M20.591,23.737C18.06,25.448,19.154,28.731,22.301,28.731C24.285,28.731,25.584,27.089,25.037,25.037C24.558,23.053,22.438,22.369,20.591,23.737ZM20.591,23.737"/>
  <path fill-rule="nonzero" stroke-opacity="1" version="1.0" fill="#000000" stroke="none" stroke-miterlimit="4" stroke-width="1px" stroke-dasharray="none" preserveAspectRatio="xMidYMid meet" stroke-linejoin="miter" stroke-linecap="butt" fill-opacity="1" d="M13.066,34.341C7.662,40.976,8.551,43.781,15.939,43.781C20.18,43.781,20.18,43.781,23.122,47.201C25.858,50.416,27.363,51.032,27.363,49.048C27.363,48.569,25.927,46.586,24.216,44.602C21.343,41.318,20.864,41.045,18.128,41.045C16.486,41.045,14.981,40.839,14.844,40.497C14.639,40.224,15.529,38.787,16.76,37.282L19.086,34.546L21.138,36.53L23.19,38.514L26.269,36.188C27.979,34.888,29.552,33.451,29.689,32.973C30.373,31.399,28.116,31.262,26.269,32.767C23.806,34.683,22.917,34.614,21.07,32.152C18.744,29.005,17.102,29.484,13.066,34.341ZM13.066,34.341"/>
</g>
  <g id="Bold-M" transform="matrix(1.0,0.0,0.0,1.0,2298.1631306887134,1055.5400390625)">  <path fill-opacity="1" fill-rule="nonzero" version="1.0" stroke-miterlimit="4" stroke-dasharray="none" fill="#000000" stroke="none" stroke-linejoin="miter" stroke-opacity="1" stroke-width="1px" preserveAspectRatio="xMidYMid meet" stroke-linecap="butt" d="M69.913,17.102C65.671,19.223,62.798,22.164,60.541,26.679C58.42,30.852,57.599,31.468,53.632,31.468C48.775,31.468,41.113,33.109,35.982,35.298C33.725,36.325,30.783,37.419,29.552,37.898C26.816,38.856,26.884,40.634,29.757,40.908C37.009,41.729,38.582,53.632,32.22,59.036C25.653,64.508,15.802,61.567,13.408,53.426C12.245,49.459,10.535,49.117,10.672,52.879C10.808,56.368,13.887,60.746,17.786,62.935C24.216,66.424,32.22,64.44,36.598,58.283C38.445,55.615,38.65,54.726,38.65,50.28C38.65,45.696,38.445,44.944,36.393,42.071L34.204,38.924L37.282,37.556C40.566,36.119,49.39,34.204,52.811,34.204L54.863,34.204L52.469,37.145C50.416,39.608,50.211,40.224,50.964,41.25C51.716,42.276,52.127,41.934,55.068,38.308C58.694,33.657,59.036,33.588,64.166,37.077C66.15,38.445,67.04,38.787,67.04,38.103C67.04,36.94,63.209,33.041,61.567,32.494C59.72,31.946,63.482,24.832,67.382,21.343C69.981,19.017,73.675,17.17,74.154,17.923C75.112,19.291,79.353,32.22,79.011,32.767C78.258,34.067,76.411,33.588,74.428,31.673C73.059,30.373,72.307,30.031,71.76,30.578C71.281,31.057,71.828,31.946,73.607,33.451C75.659,35.298,76.48,35.64,78.258,35.298C82.294,34.477,82.294,33.93,78.943,24.969C77.232,20.454,75.454,16.349,74.975,15.871C74.291,15.187,73.333,15.46,69.913,17.102ZM69.913,17.102"/>
  <path stroke="none" stroke-linejoin="miter" version="1.0" fill-rule="nonzero" stroke-dasharray="none" stroke-width="1px" stroke-opacity="1" stroke-miterlimit="4" preserveAspectRatio="xMidYMid meet" fill="#000000" stroke-linecap="butt" fill-opacity="1" d="M20.591,23.737C18.06,25.448,19.154,28.731,22.301,28.731C24.285,28.731,25.584,27.089,25.037,25.037C24.558,23.053,22.438,22.369,20.591,23.737ZM20.591,23.737"/>
  <path preserveAspectRatio="xMidYMid meet" fill-rule="nonzero" stroke-miterlimit="4" fill="#000000" stroke-dasharray="none" fill-opacity="1" stroke-linecap="butt" version="1.0" stroke-linejoin="miter" stroke="none" stroke-width="1px" stroke-opacity="1" d="M13.066,34.341C7.662,40.976,8.551,43.781,15.939,43.781C20.18,43.781,20.18,43.781,23.122,47.201C25.858,50.416,27.363,51.032,27.363,49.048C27.363,48.569,25.927,46.586,24.216,44.602C21.343,41.318,20.864,41.045,18.128,41.045C16.486,41.045,14.981,40.839,14.844,40.497C14.639,40.224,15.529,38.787,16.76,37.282L19.086,34.546L21.138,36.53L23.19,38.514L26.269,36.188C27.979,34.888,29.552,33.451,29.689,32.973C30.373,31.399,28.116,31.262,26.269,32.767C23.806,34.683,22.917,34.614,21.07,32.152C18.744,29.005,17.102,29.484,13.066,34.341ZM13.066,34.341"/>
</g>
  <g id="Semibold-M" transform="matrix(1.0,0.0,0.0,1.0,2001.4531306887136,1055.5400390625)">  <path stroke="none" preserveAspectRatio="xMidYMid meet" stroke-miterlimit="4" fill-rule="nonzero" fill="#000000" stroke-width="1px" fill-opacity="1" stroke-linecap="butt" stroke-dasharray="none" stroke-linejoin="miter" version="1.0" stroke-opacity="1" d="M69.913,17.102C65.671,19.223,62.798,22.164,60.541,26.679C58.42,30.852,57.599,31.468,53.632,31.468C48.775,31.468,41.113,33.109,35.982,35.298C33.725,36.325,30.783,37.419,29.552,37.898C26.816,38.856,26.884,40.634,29.757,40.908C37.009,41.729,38.582,53.632,32.22,59.036C25.653,64.508,15.802,61.567,13.408,53.426C12.245,49.459,10.535,49.117,10.672,52.879C10.808,56.368,13.887,60.746,17.786,62.935C24.216,66.424,32.22,64.44,36.598,58.283C38.445,55.615,38.65,54.726,38.65,50.28C38.65,45.696,38.445,44.944,36.393,42.071L34.204,38.924L37.282,37.556C40.566,36.119,49.39,34.204,52.811,34.204L54.863,34.204L52.469,37.145C50.416,39.608,50.211,40.224,50.964,41.25C51.716,42.276,52.127,41.934,55.068,38.308C58.694,33.657,59.036,33.588,64.166,37.077C66.15,38.445,67.04,38.787,67.04,38.103C67.04,36.94,63.209,33.041,61.567,32.494C59.72,31.946,63.482,24.832,67.382,21.343C69.981,19.017,73.675,17.17,74.154,17.923C75.112,19.291,79.353,32.22,79.011,32.767C78.258,34.067,76.411,33.588,74.428,31.673C73.059,30.373,72.307,30.031,71.76,30.578C71.281,31.057,71.828,31.946,73.607,33.451C75.659,35.298,76.48,35.64,78.258,35.298C82.294,34.477,82.294,33.93,78.943,24.969C77.232,20.454,75.454,16.349,74.975,15.871C74.291,15.187,73.333,15.46,69.913,17.102ZM69.913,17.102"/>
  <path fill-opacity="1" stroke="none" fill-rule="nonzero" stroke-dasharray="none" stroke-linecap="butt" stroke-opacity="1" preserveAspectRatio="xMidYMid meet" stroke-linejoin="miter" fill="#000000" stroke-width="1px" stroke-miterlimit="4" version="1.0" d="M20.591,23.737C18.06,25.448,19.154,28.731,22.301,28.731C24.285,28.731,25.584,27.089,25.037,25.037C24.558,23.053,22.438,22.369,20.591,23.737ZM20.591,23.737"/>
  <path stroke-dasharray="none" stroke="none" fill="#000000" preserveAspectRatio="xMidYMid meet" stroke-opacity="1" stroke-miterlimit="4" fill-opacity="1" stroke-width="1px" stroke-linecap="butt" version="1.0" fill-rule="nonzero" stroke-linejoin="miter" d="M13.066,34.341C7.662,40.976,8.551,43.781,15.939,43.781C20.18,43.781,20.18,43.781,23.122,47.201C25.858,50.416,27.363,51.032,27.363,49.048C27.363,48.569,25.927,46.586,24.216,44.602C21.343,41.318,20.864,41.045,18.128,41.045C16.486,41.045,14.981,40.839,14.844,40.497C14.639,40.224,15.529,38.787,16.76,37.282L19.086,34.546L21.138,36.53L23.19,38.514L26.269,36.188C27.979,34.888,29.552,33.451,29.689,32.973C30.373,31.399,28.116,31.262,26.269,32.767C23.806,34.683,22.917,34.614,21.07,32.152C18.744,29.005,17.102,29.484,13.066,34.341ZM13.066,34.341"/>
</g>
  <g id="Medium-M" transform="matrix(1.0,0.0,0.0,1.0,1704.7431306887136,1055.5400390625)">  <path version="1.0" stroke-width="1px" stroke-linejoin="miter" stroke-miterlimit="4" fill-rule="nonzero" stroke-dasharray="none" stroke="none" stroke-linecap="butt" fill="#000000" fill-opacity="1" stroke-opacity="1" preserveAspectRatio="xMidYMid meet" d="M69.913,17.102C65.671,19.223,62.798,22.164,60.541,26.679C58.42,30.852,57.599,31.468,53.632,31.468C48.775,31.468,41.113,33.109,35.982,35.298C33.725,36.325,30.783,37.419,29.552,37.898C26.816,38.856,26.884,40.634,29.757,40.908C37.009,41.729,38.582,53.632,32.22,59.036C25.653,64.508,15.802,61.567,13.408,53.426C12.245,49.459,10.535,49.117,10.672,52.879C10.808,56.368,13.887,60.746,17.786,62.935C24.216,66.424,32.22,64.44,36.598,58.283C38.445,55.615,38.65,54.726,38.65,50.28C38.65,45.696,38.445,44.944,36.393,42.071L34.204,38.924L37.282,37.556C40.566,36.119,49.39,34.204,52.811,34.204L54.863,34.204L52.469,37.145C50.416,39.608,50.211,40.224,50.964,41.25C51.716,42.276,52.127,41.934,55.068,38.308C58.694,33.657,59.036,33.588,64.166,37.077C66.15,38.445,67.04,38.787,67.04,38.103C67.04,36.94,63.209,33.041,61.567,32.494C59.72,31.946,63.482,24.832,67.382,21.343C69.981,19.017,73.675,17.17,74.154,17.923C75.112,19.291,79.353,32.22,79.011,32.767C78.258,34.067,76.411,33.588,74.428,31.673C73.059,30.373,72.307,30.031,71.76,30.578C71.281,31.057,71.828,31.946,73.607,33.451C75.659,35.298,76.48,35.64,78.258,35.298C82.294,34.477,82.294,33.93,78.943,24.969C77.232,20.454,75.454,16.349,74.975,15.871C74.291,15.187,73.333,15.46,69.913,17.102ZM69.913,17.102"/>
  <path fill="#000000" stroke-miterlimit="4" preserveAspectRatio="xMidYMid meet" stroke-linejoin="miter" stroke-linecap="butt" fill-opacity="1" stroke="none" stroke-dasharray="none" stroke-opacity="1" fill-rule="nonzero" version="1.0" stroke-width="1px" d="M20.591,23.737C18.06,25.448,19.154,28.731,22.301,28.731C24.285,28.731,25.584,27.089,25.037,25.037C24.558,23.053,22.438,22.369,20.591,23.737ZM20.591,23.737"/>
  <path stroke-linejoin="miter" version="1.0" stroke-miterlimit="4" fill-rule="nonzero" fill-opacity="1" stroke-opacity="1" preserveAspectRatio="xMidYMid meet" stroke-width="1px" fill="#000000" stroke-dasharray="none" stroke="none" stroke-linecap="butt" d="M13.066,34.341C7.662,40.976,8.551,43.781,15.939,43.781C20.18,43.781,20.18,43.781,23.122,47.201C25.858,50.416,27.363,51.032,27.363,49.048C27.363,48.569,25.927,46.586,24.216,44.602C21.343,41.318,20.864,41.045,18.128,41.045C16.486,41.045,14.981,40.839,14.844,40.497C14.639,40.224,15.529,38.787,16.76,37.282L19.086,34.546L21.138,36.53L23.19,38.514L26.269,36.188C27.979,34.888,29.552,33.451,29.689,32.973C30.373,31.399,28.116,31.262,26.269,32.767C23.806,34.683,22.917,34.614,21.07,32.152C18.744,29.005,17.102,29.484,13.066,34.341ZM13.066,34.341"/>
</g>
  <g id="Regular-M" transform="matrix(1.0,0.0,0.0,1.0,1408.0331306887135,1055.5400390625)">  <path stroke-linecap="butt" stroke-miterlimit="4" stroke="none" stroke-width="1px" stroke-linejoin="miter" version="1.0" fill-opacity="1" fill="#000000" stroke-opacity="1" stroke-dasharray="none" fill-rule="nonzero" preserveAspectRatio="xMidYMid meet" d="M69.913,17.102C65.671,19.223,62.798,22.164,60.541,26.679C58.42,30.852,57.599,31.468,53.632,31.468C48.775,31.468,41.113,33.109,35.982,35.298C33.725,36.325,30.783,37.419,29.552,37.898C26.816,38.856,26.884,40.634,29.757,40.908C37.009,41.729,38.582,53.632,32.22,59.036C25.653,64.508,15.802,61.567,13.408,53.426C12.245,49.459,10.535,49.117,10.672,52.879C10.808,56.368,13.887,60.746,17.786,62.935C24.216,66.424,32.22,64.44,36.598,58.283C38.445,55.615,38.65,54.726,38.65,50.28C38.65,45.696,38.445,44.944,36.393,42.071L34.204,38.924L37.282,37.556C40.566,36.119,49.39,34.204,52.811,34.204L54.863,34.204L52.469,37.145C50.416,39.608,50.211,40.224,50.964,41.25C51.716,42.276,52.127,41.934,55.068,38.308C58.694,33.657,59.036,33.588,64.166,37.077C66.15,38.445,67.04,38.787,67.04,38.103C67.04,36.94,63.209,33.041,61.567,32.494C59.72,31.946,63.482,24.832,67.382,21.343C69.981,19.017,73.675,17.17,74.154,17.923C75.112,19.291,79.353,32.22,79.011,32.767C78.258,34.067,76.411,33.588,74.428,31.673C73.059,30.373,72.307,30.031,71.76,30.578C71.281,31.057,71.828,31.946,73.607,33.451C75.659,35.298,76.48,35.64,78.258,35.298C82.294,34.477,82.294,33.93,78.943,24.969C77.232,20.454,75.454,16.349,74.975,15.871C74.291,15.187,73.333,15.46,69.913,17.102ZM69.913,17.102"/>
  <path stroke-linejoin="miter" stroke-miterlimit="4" version="1.0" stroke-dasharray="none" stroke-linecap="butt" stroke="none" preserveAspectRatio="xMidYMid meet" stroke-width="1px" stroke-opacity="1" fill-rule="nonzero" fill-opacity="1" fill="#000000" d="M20.591,23.737C18.06,25.448,19.154,28.731,22.301,28.731C24.285,28.731,25.584,27.089,25.037,25.037C24.558,23.053,22.438,22.369,20.591,23.737ZM20.591,23.737"/>
  <path stroke="none" stroke-width="1px" fill-opacity="1" version="1.0" fill="#000000" stroke-linejoin="miter" stroke-miterlimit="4" stroke-dasharray="none" stroke-linecap="butt" preserveAspectRatio="xMidYMid meet" stroke-opacity="1" fill-rule="nonzero" d="M13.066,34.341C7.662,40.976,8.551,43.781,15.939,43.781C20.18,43.781,20.18,43.781,23.122,47.201C25.858,50.416,27.363,51.032,27.363,49.048C27.363,48.569,25.927,46.586,24.216,44.602C21.343,41.318,20.864,41.045,18.128,41.045C16.486,41.045,14.981,40.839,14.844,40.497C14.639,40.224,15.529,38.787,16.76,37.282L19.086,34.546L21.138,36.53L23.19,38.514L26.269,36.188C27.979,34.888,29.552,33.451,29.689,32.973C30.373,31.399,28.116,31.262,26.269,32.767C23.806,34.683,22.917,34.614,21.07,32.152C18.744,29.005,17.102,29.484,13.066,34.341ZM13.066,34.341"/>
</g>
  <g id="Light-M" transform="matrix(1.0,0.0,0.0,1.0,1111.3231306887137,1055.5400390625)">  <path fill-rule="nonzero" stroke-opacity="1" stroke-dasharray="none" stroke="none" stroke-linecap="butt" stroke-linejoin="miter" stroke-width="1px" version="1.0" stroke-miterlimit="4" fill="#000000" preserveAspectRatio="xMidYMid meet" fill-opacity="1" d="M69.913,17.102C65.671,19.223,62.798,22.164,60.541,26.679C58.42,30.852,57.599,31.468,53.632,31.468C48.775,31.468,41.113,33.109,35.982,35.298C33.725,36.325,30.783,37.419,29.552,37.898C26.816,38.856,26.884,40.634,29.757,40.908C37.009,41.729,38.582,53.632,32.22,59.036C25.653,64.508,15.802,61.567,13.408,53.426C12.245,49.459,10.535,49.117,10.672,52.879C10.808,56.368,13.887,60.746,17.786,62.935C24.216,66.424,32.22,64.44,36.598,58.283C38.445,55.615,38.65,54.726,38.65,50.28C38.65,45.696,38.445,44.944,36.393,42.071L34.204,38.924L37.282,37.556C40.566,36.119,49.39,34.204,52.811,34.204L54.863,34.204L52.469,37.145C50.416,39.608,50.211,40.224,50.964,41.25C51.716,42.276,52.127,41.934,55.068,38.308C58.694,33.657,59.036,33.588,64.166,37.077C66.15,38.445,67.04,38.787,67.04,38.103C67.04,36.94,63.209,33.041,61.567,32.494C59.72,31.946,63.482,24.832,67.382,21.343C69.981,19.017,73.675,17.17,74.154,17.923C75.112,19.291,79.353,32.22,79.011,32.767C78.258,34.067,76.411,33.588,74.428,31.673C73.059,30.373,72.307,30.031,71.76,30.578C71.281,31.057,71.828,31.946,73.607,33.451C75.659,35.298,76.48,35.64,78.258,35.298C82.294,34.477,82.294,33.93,78.943,24.969C77.232,20.454,75.454,16.349,74.975,15.871C74.291,15.187,73.333,15.46,69.913,17.102ZM69.913,17.102"/>
  <path stroke-width="1px" stroke="none" stroke-opacity="1" fill="#000000" fill-rule="nonzero" fill-opacity="1" stroke-dasharray="none" stroke-linejoin="miter" stroke-linecap="butt" stroke-miterlimit="4" version="1.0" preserveAspectRatio="xMidYMid meet" d="M20.591,23.737C18.06,25.448,19.154,28.731,22.301,28.731C24.285,28.731,25.584,27.089,25.037,25.037C24.558,23.053,22.438,22.369,20.591,23.737ZM20.591,23.737"/>
  <path stroke-dasharray="none" stroke-miterlimit="4" version="1.0" stroke-width="1px" fill-rule="nonzero" fill-opacity="1" stroke-opacity="1" stroke-linecap="butt" stroke="none" stroke-linejoin="miter" preserveAspectRatio="xMidYMid meet" fill="#000000" d="M13.066,34.341C7.662,40.976,8.551,43.781,15.939,43.781C20.18,43.781,20.18,43.781,23.122,47.201C25.858,50.416,27.363,51.032,27.363,49.048C27.363,48.569,25.927,46.586,24.216,44.602C21.343,41.318,20.864,41.045,18.128,41.045C16.486,41.045,14.981,40.839,14.844,40.497C14.639,40.224,15.529,38.787,16.76,37.282L19.086,34.546L21.138,36.53L23.19,38.514L26.269,36.188C27.979,34.888,29.552,33.451,29.689,32.973C30.373,31.399,28.116,31.262,26.269,32.767C23.806,34.683,22.917,34.614,21.07,32.152C18.744,29.005,17.102,29.484,13.066,34.341ZM13.066,34.341"/>
</g>
  <g id="Thin-M" transform="matrix(1.0,0.0,0.0,1.0,814.6131306887137,1055.5400390625)">  <path preserveAspectRatio="xMidYMid meet" stroke-dasharray="none" stroke-linecap="butt" stroke-miterlimit="4" version="1.0" stroke-opacity="1" fill-opacity="1" stroke-width="1px" stroke="none" fill="#000000" fill-rule="nonzero" stroke-linejoin="miter" d="M69.913,17.102C65.671,19.223,62.798,22.164,60.541,26.679C58.42,30.852,57.599,31.468,53.632,31.468C48.775,31.468,41.113,33.109,35.982,35.298C33.725,36.325,30.783,37.419,29.552,37.898C26.816,38.856,26.884,40.634,29.757,40.908C37.009,41.729,38.582,53.632,32.22,59.036C25.653,64.508,15.802,61.567,13.408,53.426C12.245,49.459,10.535,49.117,10.672,52.879C10.808,56.368,13.887,60.746,17.786,62.935C24.216,66.424,32.22,64.44,36.598,58.283C38.445,55.615,38.65,54.726,38.65,50.28C38.65,45.696,38.445,44.944,36.393,42.071L34.204,38.924L37.282,37.556C40.566,36.119,49.39,34.204,52.811,34.204L54.863,34.204L52.469,37.145C50.416,39.608,50.211,40.224,50.964,41.25C51.716,42.276,52.127,41.934,55.068,38.308C58.694,33.657,59.036,33.588,64.166,37.077C66.15,38.445,67.04,38.787,67.04,38.103C67.04,36.94,63.209,33.041,61.567,32.494C59.72,31.946,63.482,24.832,67.382,21.343C69.981,19.017,73.675,17.17,74.154,17.923C75.112,19.291,79.353,32.22,79.011,32.767C78.258,34.067,76.411,33.588,74.428,31.673C73.059,30.373,72.307,30.031,71.76,30.578C71.281,31.057,71.828,31.946,73.607,33.451C75.659,35.298,76.48,35.64,78.258,35.298C82.294,34.477,82.294,33.93,78.943,24.969C77.232,20.454,75.454,16.349,74.975,15.871C74.291,15.187,73.333,15.46,69.913,17.102ZM69.913,17.102"/>
  <path stroke-linecap="butt" stroke-width="1px" stroke-opacity="1" version="1.0" stroke-dasharray="none" fill-opacity="1" stroke-miterlimit="4" stroke="none" stroke-linejoin="miter" fill="#000000" fill-rule="nonzero" preserveAspectRatio="xMidYMid meet" d="M20.591,23.737C18.06,25.448,19.154,28.731,22.301,28.731C24.285,28.731,25.584,27.089,25.037,25.037C24.558,23.053,22.438,22.369,20.591,23.737ZM20.591,23.737"/>
  <path stroke-linejoin="miter" fill-rule="nonzero" fill-opacity="1" fill="#000000" preserveAspectRatio="xMidYMid meet" stroke-width="1px" stroke-linecap="butt" stroke="none" stroke-miterlimit="4" stroke-dasharray="none" version="1.0" stroke-opacity="1" d="M13.066,34.341C7.662,40.976,8.551,43.781,15.939,43.781C20.18,43.781,20.18,43.781,23.122,47.201C25.858,50.416,27.363,51.032,27.363,49.048C27.363,48.569,25.927,46.586,24.216,44.602C21.343,41.318,20.864,41.045,18.128,41.045C16.486,41.045,14.981,40.839,14.844,40.497C14.639,40.224,15.529,38.787,16.76,37.282L19.086,34.546L21.138,36.53L23.19,38.514L26.269,36.188C27.979,34.888,29.552,33.451,29.689,32.973C30.373,31.399,28.116,31.262,26.269,32.767C23.806,34.683,22.917,34.614,21.07,32.152C18.744,29.005,17.102,29.484,13.066,34.341ZM13.066,34.341"/>
</g>
  <g id="Ultralight-M" transform="matrix(1.0,0.0,0.0,1.0,517.9031306887136,1055.5400390625)">  <path fill-rule="nonzero" stroke-width="1px" fill-opacity="1" stroke-linecap="butt" preserveAspectRatio="xMidYMid meet" fill="#000000" stroke-linejoin="miter" stroke="none" stroke-dasharray="none" version="1.0" stroke-opacity="1" stroke-miterlimit="4" d="M69.913,17.102C65.671,19.223,62.798,22.164,60.541,26.679C58.42,30.852,57.599,31.468,53.632,31.468C48.775,31.468,41.113,33.109,35.982,35.298C33.725,36.325,30.783,37.419,29.552,37.898C26.816,38.856,26.884,40.634,29.757,40.908C37.009,41.729,38.582,53.632,32.22,59.036C25.653,64.508,15.802,61.567,13.408,53.426C12.245,49.459,10.535,49.117,10.672,52.879C10.808,56.368,13.887,60.746,17.786,62.935C24.216,66.424,32.22,64.44,36.598,58.283C38.445,55.615,38.65,54.726,38.65,50.28C38.65,45.696,38.445,44.944,36.393,42.071L34.204,38.924L37.282,37.556C40.566,36.119,49.39,34.204,52.811,34.204L54.863,34.204L52.469,37.145C50.416,39.608,50.211,40.224,50.964,41.25C51.716,42.276,52.127,41.934,55.068,38.308C58.694,33.657,59.036,33.588,64.166,37.077C66.15,38.445,67.04,38.787,67.04,38.103C67.04,36.94,63.209,33.041,61.567,32.494C59.72,31.946,63.482,24.832,67.382,21.343C69.981,19.017,73.675,17.17,74.154,17.923C75.112,19.291,79.353,32.22,79.011,32.767C78.258,34.067,76.411,33.588,74.428,31.673C73.059,30.373,72.307,30.031,71.76,30.578C71.281,31.057,71.828,31.946,73.607,33.451C75.659,35.298,76.48,35.64,78.258,35.298C82.294,34.477,82.294,33.93,78.943,24.969C77.232,20.454,75.454,16.349,74.975,15.871C74.291,15.187,73.333,15.46,69.913,17.102ZM69.913,17.102"/>
  <path version="1.0" stroke-miterlimit="4" stroke-linecap="butt" fill-rule="nonzero" fill="#000000" stroke-dasharray="none" preserveAspectRatio="xMidYMid meet" stroke-linejoin="miter" stroke-opacity="1" fill-opacity="1" stroke="none" stroke-width="1px" d="M20.591,23.737C18.06,25.448,19.154,28.731,22.301,28.731C24.285,28.731,25.584,27.089,25.037,25.037C24.558,23.053,22.438,22.369,20.591,23.737ZM20.591,23.737"/>
  <path stroke-miterlimit="4" preserveAspectRatio="xMidYMid meet" fill-rule="nonzero" stroke-opacity="1" stroke-width="1px" stroke="none" version="1.0" fill="#000000" stroke-linejoin="miter" fill-opacity="1" stroke-dasharray="none" stroke-linecap="butt" d="M13.066,34.341C7.662,40.976,8.551,43.781,15.939,43.781C20.18,43.781,20.18,43.781,23.122,47.201C25.858,50.416,27.363,51.032,27.363,49.048C27.363,48.569,25.927,46.586,24.216,44.602C21.343,41.318,20.864,41.045,18.128,41.045C16.486,41.045,14.981,40.839,14.844,40.497C14.639,40.224,15.529,38.787,16.76,37.282L19.086,34.546L21.138,36.53L23.19,38.514L26.269,36.188C27.979,34.888,29.552,33.451,29.689,32.973C30.373,31.399,28.116,31.262,26.269,32.767C23.806,34.683,22.917,34.614,21.07,32.152C18.744,29.005,17.102,29.484,13.066,34.341ZM13.066,34.341"/>
</g>
  <g id="Black-S" transform="matrix(1.0,0.0,0.0,1.0,2900.9351513292627,633.1849448242187)">  <path fill-rule="nonzero" fill-opacity="1" preserveAspectRatio="xMidYMid meet" stroke-dasharray="none" fill="#000000" stroke-miterlimit="4" stroke-linejoin="miter" stroke-linecap="butt" version="1.0" stroke-width="1px" stroke-opacity="1" stroke="none" d="M54.742,13.391C51.421,15.051,49.171,17.354,47.403,20.89C45.743,24.157,45.1,24.639,41.994,24.639C38.191,24.639,32.192,25.925,28.174,27.639C26.407,28.442,24.103,29.299,23.139,29.674C20.997,30.424,21.05,31.817,23.3,32.031C28.978,32.674,30.21,41.994,25.228,46.225C20.086,50.51,12.373,48.207,10.498,41.833C9.588,38.726,8.249,38.458,8.356,41.404C8.463,44.136,10.873,47.564,13.926,49.278C18.961,52.01,25.228,50.457,28.656,45.636C30.103,43.547,30.263,42.851,30.263,39.369C30.263,35.78,30.103,35.191,28.496,32.941L26.782,30.477L29.192,29.406C31.763,28.281,38.673,26.782,41.351,26.782L42.958,26.782L41.083,29.085C39.476,31.013,39.315,31.495,39.905,32.299C40.494,33.102,40.815,32.834,43.118,29.995C45.957,26.353,46.225,26.3,50.242,29.031C51.796,30.103,52.492,30.37,52.492,29.835C52.492,28.924,49.492,25.871,48.207,25.443C46.761,25.014,49.707,19.443,52.76,16.712C54.795,14.891,57.688,13.444,58.063,14.034C58.812,15.105,62.133,25.228,61.866,25.657C61.276,26.674,59.83,26.3,58.277,24.8C57.206,23.782,56.616,23.514,56.188,23.943C55.813,24.318,56.241,25.014,57.634,26.192C59.241,27.639,59.884,27.906,61.276,27.639C64.437,26.996,64.437,26.567,61.812,19.551C60.473,16.015,59.08,12.802,58.705,12.427C58.17,11.891,57.42,12.105,54.742,13.391ZM54.742,13.391"/>
  <path stroke-linecap="butt" preserveAspectRatio="xMidYMid meet" stroke-linejoin="miter" stroke-width="1px" fill="#000000" version="1.0" fill-opacity="1" stroke-miterlimit="4" stroke-dasharray="none" fill-rule="nonzero" stroke="none" stroke-opacity="1" d="M16.123,18.586C14.141,19.926,14.998,22.497,17.462,22.497C19.015,22.497,20.033,21.211,19.604,19.604C19.229,18.051,17.569,17.515,16.123,18.586ZM16.123,18.586"/>
  <path version="1.0" fill-rule="nonzero" stroke-dasharray="none" stroke-opacity="1" preserveAspectRatio="xMidYMid meet" stroke-miterlimit="4" stroke="none" stroke-linejoin="miter" stroke-linecap="butt" fill-opacity="1" stroke-width="1px" fill="#000000" d="M10.231,26.889C5.999,32.084,6.695,34.28,12.48,34.28C15.801,34.28,15.801,34.28,18.104,36.959C20.247,39.476,21.425,39.958,21.425,38.405C21.425,38.03,20.3,36.477,18.961,34.923C16.712,32.352,16.337,32.138,14.194,32.138C12.909,32.138,11.73,31.977,11.623,31.709C11.463,31.495,12.159,30.37,13.123,29.192L14.944,27.049L16.551,28.603L18.158,30.156L20.568,28.335C21.907,27.317,23.139,26.192,23.246,25.817C23.782,24.586,22.014,24.478,20.568,25.657C18.64,27.157,17.944,27.103,16.497,25.175C14.676,22.711,13.391,23.086,10.231,26.889ZM10.231,26.889"/>
</g>
  <g id="Heavy-S" transform="matrix(1.0,0.0,0.0,1.0,2604.2251513292626,633.1849448242187)">  <path stroke-opacity="1" version="1.0" stroke-miterlimit="4" stroke-linejoin="miter" fill-rule="nonzero" stroke-dasharray="none" stroke-width="1px" stroke="none" preserveAspectRatio="xMidYMid meet" stroke-linecap="butt" fill="#000000" fill-opacity="1" d="M54.742,13.391C51.421,15.051,49.171,17.354,47.403,20.89C45.743,24.157,45.1,24.639,41.994,24.639C38.191,24.639,32.192,25.925,28.174,27.639C26.407,28.442,24.103,29.299,23.139,29.674C20.997,30.424,21.05,31.817,23.3,32.031C28.978,32.674,30.21,41.994,25.228,46.225C20.086,50.51,12.373,48.207,10.498,41.833C9.588,38.726,8.249,38.458,8.356,41.404C8.463,44.136,10.873,47.564,13.926,49.278C18.961,52.01,25.228,50.457,28.656,45.636C30.103,43.547,30.263,42.851,30.263,39.369C30.263,35.78,30.103,35.191,28.496,32.941L26.782,30.477L29.192,29.406C31.763,28.281,38.673,26.782,41.351,26.782L42.958,26.782L41.083,29.085C39.476,31.013,39.315,31.495,39.905,32.299C40.494,33.102,40.815,32.834,43.118,29.995C45.957,26.353,46.225,26.3,50.242,29.031C51.796,30.103,52.492,30.37,52.492,29.835C52.492,28.924,49.492,25.871,48.207,25.443C46.761,25.014,49.707,19.443,52.76,16.712C54.795,14.891,57.688,13.444,58.063,14.034C58.812,15.105,62.133,25.228,61.866,25.657C61.276,26.674,59.83,26.3,58.277,24.8C57.206,23.782,56.616,23.514,56.188,23.943C55.813,24.318,56.241,25.014,57.634,26.192C59.241,27.639,59.884,27.906,61.276,27.639C64.437,26.996,64.437,26.567,61.812,19.551C60.473,16.015,59.08,12.802,58.705,12.427C58.17,11.891,57.42,12.105,54.742,13.391ZM54.742,13.391"/>
  <path fill-rule="nonzero" stroke-linejoin="miter" fill-opacity="1" stroke-dasharray="none" preserveAspectRatio="xMidYMid meet" fill="#000000" stroke-linecap="butt" stroke="none" stroke-width="1px" stroke-opacity="1" stroke-miterlimit="4" version="1.0" d="M16.123,18.586C14.141,19.926,14.998,22.497,17.462,22.497C19.015,22.497,20.033,21.211,19.604,19.604C19.229,18.051,17.569,17.515,16.123,18.586ZM16.123,18.586"/>
  <path fill-rule="nonzero" stroke-opacity="1" version="1.0" fill="#000000" stroke="none" stroke-miterlimit="4" stroke-width="1px" stroke-dasharray="none" preserveAspectRatio="xMidYMid meet" stroke-linejoin="miter" stroke-linecap="butt" fill-opacity="1" d="M10.231,26.889C5.999,32.084,6.695,34.28,12.48,34.28C15.801,34.28,15.801,34.28,18.104,36.959C20.247,39.476,21.425,39.958,21.425,38.405C21.425,38.03,20.3,36.477,18.961,34.923C16.712,32.352,16.337,32.138,14.194,32.138C12.909,32.138,11.73,31.977,11.623,31.709C11.463,31.495,12.159,30.37,13.123,29.192L14.944,27.049L16.551,28.603L18.158,30.156L20.568,28.335C21.907,27.317,23.139,26.192,23.246,25.817C23.782,24.586,22.014,24.478,20.568,25.657C18.64,27.157,17.944,27.103,16.497,25.175C14.676,22.711,13.391,23.086,10.231,26.889ZM10.231,26.889"/>
</g>
  <g id="Bold-S" transform="matrix(1.0,0.0,0.0,1.0,2307.5151513292626,633.1849448242187)">  <path fill-opacity="1" fill-rule="nonzero" version="1.0" stroke-miterlimit="4" stroke-dasharray="none" fill="#000000" stroke="none" stroke-linejoin="miter" stroke-opacity="1" stroke-width="1px" preserveAspectRatio="xMidYMid meet" stroke-linecap="butt" d="M54.742,13.391C51.421,15.051,49.171,17.354,47.403,20.89C45.743,24.157,45.1,24.639,41.994,24.639C38.191,24.639,32.192,25.925,28.174,27.639C26.407,28.442,24.103,29.299,23.139,29.674C20.997,30.424,21.05,31.817,23.3,32.031C28.978,32.674,30.21,41.994,25.228,46.225C20.086,50.51,12.373,48.207,10.498,41.833C9.588,38.726,8.249,38.458,8.356,41.404C8.463,44.136,10.873,47.564,13.926,49.278C18.961,52.01,25.228,50.457,28.656,45.636C30.103,43.547,30.263,42.851,30.263,39.369C30.263,35.78,30.103,35.191,28.496,32.941L26.782,30.477L29.192,29.406C31.763,28.281,38.673,26.782,41.351,26.782L42.958,26.782L41.083,29.085C39.476,31.013,39.315,31.495,39.905,32.299C40.494,33.102,40.815,32.834,43.118,29.995C45.957,26.353,46.225,26.3,50.242,29.031C51.796,30.103,52.492,30.37,52.492,29.835C52.492,28.924,49.492,25.871,48.207,25.443C46.761,25.014,49.707,19.443,52.76,16.712C54.795,14.891,57.688,13.444,58.063,14.034C58.812,15.105,62.133,25.228,61.866,25.657C61.276,26.674,59.83,26.3,58.277,24.8C57.206,23.782,56.616,23.514,56.188,23.943C55.813,24.318,56.241,25.014,57.634,26.192C59.241,27.639,59.884,27.906,61.276,27.639C64.437,26.996,64.437,26.567,61.812,19.551C60.473,16.015,59.08,12.802,58.705,12.427C58.17,11.891,57.42,12.105,54.742,13.391ZM54.742,13.391"/>
  <path stroke="none" stroke-linejoin="miter" version="1.0" fill-rule="nonzero" stroke-dasharray="none" stroke-width="1px" stroke-opacity="1" stroke-miterlimit="4" preserveAspectRatio="xMidYMid meet" fill="#000000" stroke-linecap="butt" fill-opacity="1" d="M16.123,18.586C14.141,19.926,14.998,22.497,17.462,22.497C19.015,22.497,20.033,21.211,19.604,19.604C19.229,18.051,17.569,17.515,16.123,18.586ZM16.123,18.586"/>
  <path preserveAspectRatio="xMidYMid meet" fill-rule="nonzero" stroke-miterlimit="4" fill="#000000" stroke-dasharray="none" fill-opacity="1" stroke-linecap="butt" version="1.0" stroke-linejoin="miter" stroke="none" stroke-width="1px" stroke-opacity="1" d="M10.231,26.889C5.999,32.084,6.695,34.28,12.48,34.28C15.801,34.28,15.801,34.28,18.104,36.959C20.247,39.476,21.425,39.958,21.425,38.405C21.425,38.03,20.3,36.477,18.961,34.923C16.712,32.352,16.337,32.138,14.194,32.138C12.909,32.138,11.73,31.977,11.623,31.709C11.463,31.495,12.159,30.37,13.123,29.192L14.944,27.049L16.551,28.603L18.158,30.156L20.568,28.335C21.907,27.317,23.139,26.192,23.246,25.817C23.782,24.586,22.014,24.478,20.568,25.657C18.64,27.157,17.944,27.103,16.497,25.175C14.676,22.711,13.391,23.086,10.231,26.889ZM10.231,26.889"/>
</g>
  <g id="Semibold-S" transform="matrix(1.0,0.0,0.0,1.0,2010.8051513292628,633.1849448242187)">  <path stroke="none" preserveAspectRatio="xMidYMid meet" stroke-miterlimit="4" fill-rule="nonzero" fill="#000000" stroke-width="1px" fill-opacity="1" stroke-linecap="butt" stroke-dasharray="none" stroke-linejoin="miter" version="1.0" stroke-opacity="1" d="M54.742,13.391C51.421,15.051,49.171,17.354,47.403,20.89C45.743,24.157,45.1,24.639,41.994,24.639C38.191,24.639,32.192,25.925,28.174,27.639C26.407,28.442,24.103,29.299,23.139,29.674C20.997,30.424,21.05,31.817,23.3,32.031C28.978,32.674,30.21,41.994,25.228,46.225C20.086,50.51,12.373,48.207,10.498,41.833C9.588,38.726,8.249,38.458,8.356,41.404C8.463,44.136,10.873,47.564,13.926,49.278C18.961,52.01,25.228,50.457,28.656,45.636C30.103,43.547,30.263,42.851,30.263,39.369C30.263,35.78,30.103,35.191,28.496,32.941L26.782,30.477L29.192,29.406C31.763,28.281,38.673,26.782,41.351,26.782L42.958,26.782L41.083,29.085C39.476,31.013,39.315,31.495,39.905,32.299C40.494,33.102,40.815,32.834,43.118,29.995C45.957,26.353,46.225,26.3,50.242,29.031C51.796,30.103,52.492,30.37,52.492,29.835C52.492,28.924,49.492,25.871,48.207,25.443C46.761,25.014,49.707,19.443,52.76,16.712C54.795,14.891,57.688,13.444,58.063,14.034C58.812,15.105,62.133,25.228,61.866,25.657C61.276,26.674,59.83,26.3,58.277,24.8C57.206,23.782,56.616,23.514,56.188,23.943C55.813,24.318,56.241,25.014,57.634,26.192C59.241,27.639,59.884,27.906,61.276,27.639C64.437,26.996,64.437,26.567,61.812,19.551C60.473,16.015,59.08,12.802,58.705,12.427C58.17,11.891,57.42,12.105,54.742,13.391ZM54.742,13.391"/>
  <path fill-opacity="1" stroke="none" fill-rule="nonzero" stroke-dasharray="none" stroke-linecap="butt" stroke-opacity="1" preserveAspectRatio="xMidYMid meet" stroke-linejoin="miter" fill="#000000" stroke-width="1px" stroke-miterlimit="4" version="1.0" d="M16.123,18.586C14.141,19.926,14.998,22.497,17.462,22.497C19.015,22.497,20.033,21.211,19.604,19.604C19.229,18.051,17.569,17.515,16.123,18.586ZM16.123,18.586"/>
  <path stroke-dasharray="none" stroke="none" fill="#000000" preserveAspectRatio="xMidYMid meet" stroke-opacity="1" stroke-miterlimit="4" fill-opacity="1" stroke-width="1px" stroke-linecap="butt" version="1.0" fill-rule="nonzero" stroke-linejoin="miter" d="M10.231,26.889C5.999,32.084,6.695,34.28,12.48,34.28C15.801,34.28,15.801,34.28,18.104,36.959C20.247,39.476,21.425,39.958,21.425,38.405C21.425,38.03,20.3,36.477,18.961,34.923C16.712,32.352,16.337,32.138,14.194,32.138C12.909,32.138,11.73,31.977,11.623,31.709C11.463,31.495,12.159,30.37,13.123,29.192L14.944,27.049L16.551,28.603L18.158,30.156L20.568,28.335C21.907,27.317,23.139,26.192,23.246,25.817C23.782,24.586,22.014,24.478,20.568,25.657C18.64,27.157,17.944,27.103,16.497,25.175C14.676,22.711,13.391,23.086,10.231,26.889ZM10.231,26.889"/>
</g>
  <g id="Medium-S" transform="matrix(1.0,0.0,0.0,1.0,1714.0951513292628,633.1849448242187)">  <path version="1.0" stroke-width="1px" stroke-linejoin="miter" stroke-miterlimit="4" fill-rule="nonzero" stroke-dasharray="none" stroke="none" stroke-linecap="butt" fill="#000000" fill-opacity="1" stroke-opacity="1" preserveAspectRatio="xMidYMid meet" d="M54.742,13.391C51.421,15.051,49.171,17.354,47.403,20.89C45.743,24.157,45.1,24.639,41.994,24.639C38.191,24.639,32.192,25.925,28.174,27.639C26.407,28.442,24.103,29.299,23.139,29.674C20.997,30.424,21.05,31.817,23.3,32.031C28.978,32.674,30.21,41.994,25.228,46.225C20.086,50.51,12.373,48.207,10.498,41.833C9.588,38.726,8.249,38.458,8.356,41.404C8.463,44.136,10.873,47.564,13.926,49.278C18.961,52.01,25.228,50.457,28.656,45.636C30.103,43.547,30.263,42.851,30.263,39.369C30.263,35.78,30.103,35.191,28.496,32.941L26.782,30.477L29.192,29.406C31.763,28.281,38.673,26.782,41.351,26.782L42.958,26.782L41.083,29.085C39.476,31.013,39.315,31.495,39.905,32.299C40.494,33.102,40.815,32.834,43.118,29.995C45.957,26.353,46.225,26.3,50.242,29.031C51.796,30.103,52.492,30.37,52.492,29.835C52.492,28.924,49.492,25.871,48.207,25.443C46.761,25.014,49.707,19.443,52.76,16.712C54.795,14.891,57.688,13.444,58.063,14.034C58.812,15.105,62.133,25.228,61.866,25.657C61.276,26.674,59.83,26.3,58.277,24.8C57.206,23.782,56.616,23.514,56.188,23.943C55.813,24.318,56.241,25.014,57.634,26.192C59.241,27.639,59.884,27.906,61.276,27.639C64.437,26.996,64.437,26.567,61.812,19.551C60.473,16.015,59.08,12.802,58.705,12.427C58.17,11.891,57.42,12.105,54.742,13.391ZM54.742,13.391"/>
  <path fill="#000000" stroke-miterlimit="4" preserveAspectRatio="xMidYMid meet" stroke-linejoin="miter" stroke-linecap="butt" fill-opacity="1" stroke="none" stroke-dasharray="none" stroke-opacity="1" fill-rule="nonzero" version="1.0" stroke-width="1px" d="M16.123,18.586C14.141,19.926,14.998,22.497,17.462,22.497C19.015,22.497,20.033,21.211,19.604,19.604C19.229,18.051,17.569,17.515,16.123,18.586ZM16.123,18.586"/>
  <path stroke-linejoin="miter" version="1.0" stroke-miterlimit="4" fill-rule="nonzero" fill-opacity="1" stroke-opacity="1" preserveAspectRatio="xMidYMid meet" stroke-width="1px" fill="#000000" stroke-dasharray="none" stroke="none" stroke-linecap="butt" d="M10.231,26.889C5.999,32.084,6.695,34.28,12.48,34.28C15.801,34.28,15.801,34.28,18.104,36.959C20.247,39.476,21.425,39.958,21.425,38.405C21.425,38.03,20.3,36.477,18.961,34.923C16.712,32.352,16.337,32.138,14.194,32.138C12.909,32.138,11.73,31.977,11.623,31.709C11.463,31.495,12.159,30.37,13.123,29.192L14.944,27.049L16.551,28.603L18.158,30.156L20.568,28.335C21.907,27.317,23.139,26.192,23.246,25.817C23.782,24.586,22.014,24.478,20.568,25.657C18.64,27.157,17.944,27.103,16.497,25.175C14.676,22.711,13.391,23.086,10.231,26.889ZM10.231,26.889"/>
</g>
  <g id="Regular-S" transform="matrix(1.0,0.0,0.0,1.0,1417.3851513292627,633.1849448242187)">  <path stroke-linecap="butt" stroke-miterlimit="4" stroke="none" stroke-width="1px" stroke-linejoin="miter" version="1.0" fill-opacity="1" fill="#000000" stroke-opacity="1" stroke-dasharray="none" fill-rule="nonzero" preserveAspectRatio="xMidYMid meet" d="M54.742,13.391C51.421,15.051,49.171,17.354,47.403,20.89C45.743,24.157,45.1,24.639,41.994,24.639C38.191,24.639,32.192,25.925,28.174,27.639C26.407,28.442,24.103,29.299,23.139,29.674C20.997,30.424,21.05,31.817,23.3,32.031C28.978,32.674,30.21,41.994,25.228,46.225C20.086,50.51,12.373,48.207,10.498,41.833C9.588,38.726,8.249,38.458,8.356,41.404C8.463,44.136,10.873,47.564,13.926,49.278C18.961,52.01,25.228,50.457,28.656,45.636C30.103,43.547,30.263,42.851,30.263,39.369C30.263,35.78,30.103,35.191,28.496,32.941L26.782,30.477L29.192,29.406C31.763,28.281,38.673,26.782,41.351,26.782L42.958,26.782L41.083,29.085C39.476,31.013,39.315,31.495,39.905,32.299C40.494,33.102,40.815,32.834,43.118,29.995C45.957,26.353,46.225,26.3,50.242,29.031C51.796,30.103,52.492,30.37,52.492,29.835C52.492,28.924,49.492,25.871,48.207,25.443C46.761,25.014,49.707,19.443,52.76,16.712C54.795,14.891,57.688,13.444,58.063,14.034C58.812,15.105,62.133,25.228,61.866,25.657C61.276,26.674,59.83,26.3,58.277,24.8C57.206,23.782,56.616,23.514,56.188,23.943C55.813,24.318,56.241,25.014,57.634,26.192C59.241,27.639,59.884,27.906,61.276,27.639C64.437,26.996,64.437,26.567,61.812,19.551C60.473,16.015,59.08,12.802,58.705,12.427C58.17,11.891,57.42,12.105,54.742,13.391ZM54.742,13.391"/>
  <path stroke-linejoin="miter" stroke-miterlimit="4" version="1.0" stroke-dasharray="none" stroke-linecap="butt" stroke="none" preserveAspectRatio="xMidYMid meet" stroke-width="1px" stroke-opacity="1" fill-rule="nonzero" fill-opacity="1" fill="#000000" d="M16.123,18.586C14.141,19.926,14.998,22.497,17.462,22.497C19.015,22.497,20.033,21.211,19.604,19.604C19.229,18.051,17.569,17.515,16.123,18.586ZM16.123,18.586"/>
  <path stroke="none" stroke-width="1px" fill-opacity="1" version="1.0" fill="#000000" stroke-linejoin="miter" stroke-miterlimit="4" stroke-dasharray="none" stroke-linecap="butt" preserveAspectRatio="xMidYMid meet" stroke-opacity="1" fill-rule="nonzero" d="M10.231,26.889C5.999,32.084,6.695,34.28,12.48,34.28C15.801,34.28,15.801,34.28,18.104,36.959C20.247,39.476,21.425,39.958,21.425,38.405C21.425,38.03,20.3,36.477,18.961,34.923C16.712,32.352,16.337,32.138,14.194,32.138C12.909,32.138,11.73,31.977,11.623,31.709C11.463,31.495,12.159,30.37,13.123,29.192L14.944,27.049L16.551,28.603L18.158,30.156L20.568,28.335C21.907,27.317,23.139,26.192,23.246,25.817C23.782,24.586,22.014,24.478,20.568,25.657C18.64,27.157,17.944,27.103,16.497,25.175C14.676,22.711,13.391,23.086,10.231,26.889ZM10.231,26.889"/>
</g>
  <g id="Light-S" transform="matrix(1.0,0.0,0.0,1.0,1120.675151329263,633.1849448242187)">  <path fill-rule="nonzero" stroke-opacity="1" stroke-dasharray="none" stroke="none" stroke-linecap="butt" stroke-linejoin="miter" stroke-width="1px" version="1.0" stroke-miterlimit="4" fill="#000000" preserveAspectRatio="xMidYMid meet" fill-opacity="1" d="M54.742,13.391C51.421,15.051,49.171,17.354,47.403,20.89C45.743,24.157,45.1,24.639,41.994,24.639C38.191,24.639,32.192,25.925,28.174,27.639C26.407,28.442,24.103,29.299,23.139,29.674C20.997,30.424,21.05,31.817,23.3,32.031C28.978,32.674,30.21,41.994,25.228,46.225C20.086,50.51,12.373,48.207,10.498,41.833C9.588,38.726,8.249,38.458,8.356,41.404C8.463,44.136,10.873,47.564,13.926,49.278C18.961,52.01,25.228,50.457,28.656,45.636C30.103,43.547,30.263,42.851,30.263,39.369C30.263,35.78,30.103,35.191,28.496,32.941L26.782,30.477L29.192,29.406C31.763,28.281,38.673,26.782,41.351,26.782L42.958,26.782L41.083,29.085C39.476,31.013,39.315,31.495,39.905,32.299C40.494,33.102,40.815,32.834,43.118,29.995C45.957,26.353,46.225,26.3,50.242,29.031C51.796,30.103,52.492,30.37,52.492,29.835C52.492,28.924,49.492,25.871,48.207,25.443C46.761,25.014,49.707,19.443,52.76,16.712C54.795,14.891,57.688,13.444,58.063,14.034C58.812,15.105,62.133,25.228,61.866,25.657C61.276,26.674,59.83,26.3,58.277,24.8C57.206,23.782,56.616,23.514,56.188,23.943C55.813,24.318,56.241,25.014,57.634,26.192C59.241,27.639,59.884,27.906,61.276,27.639C64.437,26.996,64.437,26.567,61.812,19.551C60.473,16.015,59.08,12.802,58.705,12.427C58.17,11.891,57.42,12.105,54.742,13.391ZM54.742,13.391"/>
  <path stroke-width="1px" stroke="none" stroke-opacity="1" fill="#000000" fill-rule="nonzero" fill-opacity="1" stroke-dasharray="none" stroke-linejoin="miter" stroke-linecap="butt" stroke-miterlimit="4" version="1.0" preserveAspectRatio="xMidYMid meet" d="M16.123,18.586C14.141,19.926,14.998,22.497,17.462,22.497C19.015,22.497,20.033,21.211,19.604,19.604C19.229,18.051,17.569,17.515,16.123,18.586ZM16.123,18.586"/>
  <path stroke-dasharray="none" stroke-miterlimit="4" version="1.0" stroke-width="1px" fill-rule="nonzero" fill-opacity="1" stroke-opacity="1" stroke-linecap="butt" stroke="none" stroke-linejoin="miter" preserveAspectRatio="xMidYMid meet" fill="#000000" d="M10.231,26.889C5.999,32.084,6.695,34.28,12.48,34.28C15.801,34.28,15.801,34.28,18.104,36.959C20.247,39.476,21.425,39.958,21.425,38.405C21.425,38.03,20.3,36.477,18.961,34.923C16.712,32.352,16.337,32.138,14.194,32.138C12.909,32.138,11.73,31.977,11.623,31.709C11.463,31.495,12.159,30.37,13.123,29.192L14.944,27.049L16.551,28.603L18.158,30.156L20.568,28.335C21.907,27.317,23.139,26.192,23.246,25.817C23.782,24.586,22.014,24.478,20.568,25.657C18.64,27.157,17.944,27.103,16.497,25.175C14.676,22.711,13.391,23.086,10.231,26.889ZM10.231,26.889"/>
</g>
  <g id="Thin-S" transform="matrix(1.0,0.0,0.0,1.0,823.9651513292628,633.1849448242187)">  <path preserveAspectRatio="xMidYMid meet" stroke-dasharray="none" stroke-linecap="butt" stroke-miterlimit="4" version="1.0" stroke-opacity="1" fill-opacity="1" stroke-width="1px" stroke="none" fill="#000000" fill-rule="nonzero" stroke-linejoin="miter" d="M54.742,13.391C51.421,15.051,49.171,17.354,47.403,20.89C45.743,24.157,45.1,24.639,41.994,24.639C38.191,24.639,32.192,25.925,28.174,27.639C26.407,28.442,24.103,29.299,23.139,29.674C20.997,30.424,21.05,31.817,23.3,32.031C28.978,32.674,30.21,41.994,25.228,46.225C20.086,50.51,12.373,48.207,10.498,41.833C9.588,38.726,8.249,38.458,8.356,41.404C8.463,44.136,10.873,47.564,13.926,49.278C18.961,52.01,25.228,50.457,28.656,45.636C30.103,43.547,30.263,42.851,30.263,39.369C30.263,35.78,30.103,35.191,28.496,32.941L26.782,30.477L29.192,29.406C31.763,28.281,38.673,26.782,41.351,26.782L42.958,26.782L41.083,29.085C39.476,31.013,39.315,31.495,39.905,32.299C40.494,33.102,40.815,32.834,43.118,29.995C45.957,26.353,46.225,26.3,50.242,29.031C51.796,30.103,52.492,30.37,52.492,29.835C52.492,28.924,49.492,25.871,48.207,25.443C46.761,25.014,49.707,19.443,52.76,16.712C54.795,14.891,57.688,13.444,58.063,14.034C58.812,15.105,62.133,25.228,61.866,25.657C61.276,26.674,59.83,26.3,58.277,24.8C57.206,23.782,56.616,23.514,56.188,23.943C55.813,24.318,56.241,25.014,57.634,26.192C59.241,27.639,59.884,27.906,61.276,27.639C64.437,26.996,64.437,26.567,61.812,19.551C60.473,16.015,59.08,12.802,58.705,12.427C58.17,11.891,57.42,12.105,54.742,13.391ZM54.742,13.391"/>
  <path stroke-linecap="butt" stroke-width="1px" stroke-opacity="1" version="1.0" stroke-dasharray="none" fill-opacity="1" stroke-miterlimit="4" stroke="none" stroke-linejoin="miter" fill="#000000" fill-rule="nonzero" preserveAspectRatio="xMidYMid meet" d="M16.123,18.586C14.141,19.926,14.998,22.497,17.462,22.497C19.015,22.497,20.033,21.211,19.604,19.604C19.229,18.051,17.569,17.515,16.123,18.586ZM16.123,18.586"/>
  <path stroke-linejoin="miter" fill-rule="nonzero" fill-opacity="1" fill="#000000" preserveAspectRatio="xMidYMid meet" stroke-width="1px" stroke-linecap="butt" stroke="none" stroke-miterlimit="4" stroke-dasharray="none" version="1.0" stroke-opacity="1" d="M10.231,26.889C5.999,32.084,6.695,34.28,12.48,34.28C15.801,34.28,15.801,34.28,18.104,36.959C20.247,39.476,21.425,39.958,21.425,38.405C21.425,38.03,20.3,36.477,18.961,34.923C16.712,32.352,16.337,32.138,14.194,32.138C12.909,32.138,11.73,31.977,11.623,31.709C11.463,31.495,12.159,30.37,13.123,29.192L14.944,27.049L16.551,28.603L18.158,30.156L20.568,28.335C21.907,27.317,23.139,26.192,23.246,25.817C23.782,24.586,22.014,24.478,20.568,25.657C18.64,27.157,17.944,27.103,16.497,25.175C14.676,22.711,13.391,23.086,10.231,26.889ZM10.231,26.889"/>
</g>
  <g id="Ultralight-S" transform="matrix(1.0,0.0,0.0,1.0,527.2551513292627,633.1849448242187)">  <path fill-rule="nonzero" stroke-width="1px" fill-opacity="1" stroke-linecap="butt" preserveAspectRatio="xMidYMid meet" fill="#000000" stroke-linejoin="miter" stroke="none" stroke-dasharray="none" version="1.0" stroke-opacity="1" stroke-miterlimit="4" d="M54.742,13.391C51.421,15.051,49.171,17.354,47.403,20.89C45.743,24.157,45.1,24.639,41.994,24.639C38.191,24.639,32.192,25.925,28.174,27.639C26.407,28.442,24.103,29.299,23.139,29.674C20.997,30.424,21.05,31.817,23.3,32.031C28.978,32.674,30.21,41.994,25.228,46.225C20.086,50.51,12.373,48.207,10.498,41.833C9.588,38.726,8.249,38.458,8.356,41.404C8.463,44.136,10.873,47.564,13.926,49.278C18.961,52.01,25.228,50.457,28.656,45.636C30.103,43.547,30.263,42.851,30.263,39.369C30.263,35.78,30.103,35.191,28.496,32.941L26.782,30.477L29.192,29.406C31.763,28.281,38.673,26.782,41.351,26.782L42.958,26.782L41.083,29.085C39.476,31.013,39.315,31.495,39.905,32.299C40.494,33.102,40.815,32.834,43.118,29.995C45.957,26.353,46.225,26.3,50.242,29.031C51.796,30.103,52.492,30.37,52.492,29.835C52.492,28.924,49.492,25.871,48.207,25.443C46.761,25.014,49.707,19.443,52.76,16.712C54.795,14.891,57.688,13.444,58.063,14.034C58.812,15.105,62.133,25.228,61.866,25.657C61.276,26.674,59.83,26.3,58.277,24.8C57.206,23.782,56.616,23.514,56.188,23.943C55.813,24.318,56.241,25.014,57.634,26.192C59.241,27.639,59.884,27.906,61.276,27.639C64.437,26.996,64.437,26.567,61.812,19.551C60.473,16.015,59.08,12.802,58.705,12.427C58.17,11.891,57.42,12.105,54.742,13.391ZM54.742,13.391"/>
  <path version="1.0" stroke-miterlimit="4" stroke-linecap="butt" fill-rule="nonzero" fill="#000000" stroke-dasharray="none" preserveAspectRatio="xMidYMid meet" stroke-linejoin="miter" stroke-opacity="1" fill-opacity="1" stroke="none" stroke-width="1px" d="M16.123,18.586C14.141,19.926,14.998,22.497,17.462,22.497C19.015,22.497,20.033,21.211,19.604,19.604C19.229,18.051,17.569,17.515,16.123,18.586ZM16.123,18.586"/>
  <path stroke-miterlimit="4" preserveAspectRatio="xMidYMid meet" fill-rule="nonzero" stroke-opacity="1" stroke-width="1px" stroke="none" version="1.0" fill="#000000" stroke-linejoin="miter" fill-opacity="1" stroke-dasharray="none" stroke-linecap="butt" d="M10.231,26.889C5.999,32.084,6.695,34.28,12.48,34.28C15.801,34.28,15.801,34.28,18.104,36.959C20.247,39.476,21.425,39.958,21.425,38.405C21.425,38.03,20.3,36.477,18.961,34.923C16.712,32.352,16.337,32.138,14.194,32.138C12.909,32.138,11.73,31.977,11.623,31.709C11.463,31.495,12.159,30.37,13.123,29.192L14.944,27.049L16.551,28.603L18.158,30.156L20.568,28.335C21.907,27.317,23.139,26.192,23.246,25.817C23.782,24.586,22.014,24.478,20.568,25.657C18.64,27.157,17.944,27.103,16.497,25.175C14.676,22.711,13.391,23.086,10.231,26.889ZM10.231,26.889"/>
</g>
 </g>
</svg>
